<?xml version="1.0" encoding="utf-8"?>
<!-- Generator: Adobe Illustrator 17.1.0, SVG Export Plug-In . SVG Version: 6.00 Build 0)  -->
<!DOCTYPE svg PUBLIC "-//W3C//DTD SVG 1.1//EN" "http://www.w3.org/Graphics/SVG/1.1/DTD/svg11.dtd">
<svg version="1.1" id="Layer_1" xmlns="http://www.w3.org/2000/svg" xmlns:xlink="http://www.w3.org/1999/xlink" x="0px" y="0px"
	 viewBox="0 0 262 229.8" enable-background="new 0 0 262 229.8" xml:space="preserve">
<g opacity="0.3">
	<path fill="#D8D8D7" stroke="#D1D3D4" d="M253.8,221.5"/>
	<line fill="#D8D8D7" stroke="#D1D3D4" x1="253.8" y1="221.5" x2="4.4" y2="221.5"/>
	<line fill="#D8D8D7" stroke="#D1D3D4" x1="252" y1="220.6" x2="151.3" y2="189.8"/>
	<line fill="#D8D8D7" stroke="#D1D3D4" x1="4.4" y1="221.5" x2="151.3" y2="189.8"/>
	<line fill="#D8D8D7" stroke="#D1D3D4" x1="151.3" y1="189.8" x2="58.2" y2="22"/>
	<line fill="#D8D8D7" stroke="#D1D3D4" x1="253.8" y1="221.5" x2="58.2" y2="22"/>
	<line fill="#D8D8D7" stroke="#D1D3D4" x1="220" y1="131" x2="253.8" y2="221.5"/>
	<line fill="#D8D8D7" stroke="#D1D3D4" x1="253.8" y1="221.5" x2="251.3" y2="6.3"/>
	<line fill="#D8D8D7" stroke="#D1D3D4" x1="220" y1="131" x2="251.3" y2="6.3"/>
	<path fill="#D8D8D7" stroke="#D1D3D4" d="M251.3,6.3"/>
	<path fill="#D8D8D7" stroke="#D1D3D4" stroke-miterlimit="10" d="M54.6,20.2c-1,2-0.2,4.4,1.8,5.4c2,1,4.4,0.2,5.4-1.8
		c1-2,0.2-4.4-1.8-5.4C57.9,17.4,55.5,18.2,54.6,20.2z"/>
	<path fill="#D8D8D7" stroke="#D1D3D4" stroke-miterlimit="10" d="M246.4,217.9c-2,4.1-0.3,9,3.7,11.1c4.1,2,9,0.3,11.1-3.8
		c2-4.1,0.3-9-3.7-11.1C253.3,212.1,248.4,213.8,246.4,217.9z"/>
	<path fill="#D8D8D7" stroke="#D1D3D4" stroke-miterlimit="10" d="M216.3,129.1c-1,2-0.2,4.5,1.9,5.5c2,1,4.5,0.2,5.5-1.9
		c1-2,0.2-4.5-1.9-5.5C219.8,126.3,217.3,127.1,216.3,129.1z"/>
	<path fill="#D8D8D7" stroke="#D1D3D4" stroke-miterlimit="10" d="M245.2,3.7c-1.6,3.3-0.3,7.3,3,8.9c3.3,1.6,7.3,0.3,8.9-3
		c1.6-3.3,0.3-7.3-3-8.9C250.8-0.9,246.8,0.4,245.2,3.7z"/>
	<path fill="#D8D8D7" stroke="#D1D3D4" stroke-miterlimit="10" d="M0.5,219.6c-1.1,2.2-0.2,4.8,2,5.9c2.2,1.1,4.8,0.2,5.9-2
		c1.1-2.2,0.2-4.8-2-5.9C4.2,216.5,1.5,217.4,0.5,219.6z"/>
	<path fill="#D8D8D7" stroke="#D1D3D4" stroke-miterlimit="10" d="M147.3,187.8c-1.1,2.2-0.2,4.8,2,5.9c2.2,1.1,4.8,0.2,5.9-2
		c1.1-2.2,0.2-4.8-2-5.9C151,184.8,148.4,185.7,147.3,187.8z"/>
	<line fill="#D8D8D7" stroke="#D1D3D4" x1="58.2" y1="22" x2="220" y2="131"/>
</g>
</svg>
