<?xml version="1.0" encoding="utf-8"?>
<!-- Generator: Adobe Illustrator 17.1.0, SVG Export Plug-In . SVG Version: 6.00 Build 0)  -->
<!DOCTYPE svg PUBLIC "-//W3C//DTD SVG 1.1//EN" "http://www.w3.org/Graphics/SVG/1.1/DTD/svg11.dtd">
<svg version="1.1" id="Layer_1" xmlns="http://www.w3.org/2000/svg" xmlns:xlink="http://www.w3.org/1999/xlink" x="0px" y="0px"
	 viewBox="0 0 24.3 24.3" enable-background="new 0 0 24.3 24.3" xml:space="preserve">
<g>
	<polygon fill="#FFFFFF" points="17.1,9.5 17.1,7.5 17.1,7.2 16.8,7.2 14.9,7.2 14.9,9.5 	"/>
	<path fill="#FFFFFF" d="M12.1,14.6c1.3,0,2.3-1,2.3-2.3c0-0.5-0.2-1-0.4-1.4c-0.4-0.6-1.1-1-1.9-1s-1.5,0.4-1.9,1
		c-0.3,0.4-0.4,0.8-0.4,1.4C9.7,13.6,10.8,14.6,12.1,14.6z"/>
	<path fill="#FFFFFF" d="M12.1,0C5.4,0,0,5.4,0,12.1c0,6.7,5.4,12.1,12.1,12.1c6.7,0,12.1-5.4,12.1-12.1C24.3,5.4,18.8,0,12.1,0z
		 M18.7,11v5.4c0,1.4-1.1,2.5-2.5,2.5H8c-1.4,0-2.5-1.1-2.5-2.5V11V8.3c0-1.4,1.1-2.5,2.5-2.5h8.1c1.4,0,2.5,1.1,2.5,2.5V11z"/>
	<path fill="#FFFFFF" d="M15.7,12.3c0,2-1.6,3.6-3.6,3.6s-3.6-1.6-3.6-3.6c0-0.5,0.1-0.9,0.3-1.4h-2v5.4c0,0.7,0.6,1.3,1.3,1.3h8.1
		c0.7,0,1.3-0.6,1.3-1.3V11h-2C15.6,11.4,15.7,11.8,15.7,12.3z"/>
</g>
</svg>
