<?xml version="1.0" encoding="utf-8"?>
<!-- Generator: Adobe Illustrator 17.1.0, SVG Export Plug-In . SVG Version: 6.00 Build 0)  -->
<!DOCTYPE svg PUBLIC "-//W3C//DTD SVG 1.1//EN" "http://www.w3.org/Graphics/SVG/1.1/DTD/svg11.dtd">
<svg version="1.1" id="Layer_1" xmlns="http://www.w3.org/2000/svg" xmlns:xlink="http://www.w3.org/1999/xlink" x="0px" y="0px"
	 viewBox="0 0 15 22.2" enable-background="new 0 0 15 22.2" xml:space="preserve">
<g>
	<path fill="#FFFFFF" stroke="#FFFFFF" stroke-miterlimit="10" d="M7.8,0.5c0,0-0.1,0-0.1,0c-0.1,0-0.1,0-0.2,0c0,0,0,0,0,0h0
		c-0.1,0-0.1,0-0.2,0c0,0-0.1,0-0.1,0c-3.7,0.2-6.7,3.2-6.7,7c0,0,0,0,0,0c0,1.1,0.2,3.1,1.1,5.2c1.6,4.2,4.6,8.9,5.9,8.9
		c0,0,0,0,0.1,0c0,0,0.1,0,0.1,0c1.3,0,4.2-4.7,5.9-8.9c0.8-2.1,1.1-4.1,1.1-5.2c0,0,0,0,0,0C14.5,3.7,11.5,0.7,7.8,0.5z M7.5,10.8
		c-2,0-3.7-1.7-3.7-3.7c0-2,1.7-3.7,3.7-3.7c2,0,3.7,1.7,3.7,3.7C11.2,9.2,9.5,10.8,7.5,10.8z"/>
</g>
</svg>
