<?xml version="1.0" encoding="utf-8"?>
<!-- Generator: Adobe Illustrator 17.1.0, SVG Export Plug-In . SVG Version: 6.00 Build 0)  -->
<!DOCTYPE svg PUBLIC "-//W3C//DTD SVG 1.1//EN" "http://www.w3.org/Graphics/SVG/1.1/DTD/svg11.dtd">
<svg version="1.1" id="Layer_1" xmlns="http://www.w3.org/2000/svg" xmlns:xlink="http://www.w3.org/1999/xlink" x="0px" y="0px"
	 viewBox="0 0 72.3 66.4" enable-background="new 0 0 72.3 66.4" xml:space="preserve">
<g>
	<g>
		<path fill="#FFFFFF" stroke="#FFFFFF" stroke-miterlimit="10" d="M58.6,36L36.4,16.5c-0.1-0.1-0.2-0.1-0.4-0.1
			c-0.1,0-0.3,0-0.4,0.1L13.7,36c-0.1,0.1-0.2,0.2-0.2,0.4v29.4c0,0.3,0.3,0.5,0.6,0.5h44.2c0.3,0,0.6-0.2,0.6-0.5V36.4
			C58.8,36.3,58.7,36.2,58.6,36z M43.2,44.1v17.8H29.7V44.1H43.2z"/>
		<path fill="#FFFFFF" stroke="#FFFFFF" stroke-miterlimit="10" d="M70.7,31L36.4,0.1C36.3,0.1,36.2,0,36,0c-0.1,0-0.3,0.1-0.4,0.1
			L7.4,25.8l-5.7,5.1C-0.3,32.6-0.6,35.3,1,37c0.7,0.8,1.8,1.2,2.9,1.2c1.2,0,2.4-0.5,3.4-1.3l28.8-25.5L65,36.8
			c1,0.8,2.2,1.3,3.4,1.3c1.2,0,2.2-0.4,2.9-1.2C72.9,35.3,72.6,32.7,70.7,31z"/>
	</g>
</g>
</svg>
