<?xml version="1.0" encoding="utf-8"?>
<!-- Generator: Adobe Illustrator 17.1.0, SVG Export Plug-In . SVG Version: 6.00 Build 0)  -->
<!DOCTYPE svg PUBLIC "-//W3C//DTD SVG 1.1//EN" "http://www.w3.org/Graphics/SVG/1.1/DTD/svg11.dtd">
<svg version="1.1" id="Layer_1" xmlns="http://www.w3.org/2000/svg" xmlns:xlink="http://www.w3.org/1999/xlink" x="0px" y="0px"
	 viewBox="0 0 25.2 21.9" enable-background="new 0 0 25.2 21.9" xml:space="preserve">
<g>
	<path fill="#FFFFFF" stroke="#FFFFFF" stroke-miterlimit="10" d="M23.6,9.1l0.9-0.9c0.3-0.3,0.3-0.9-0.1-1.2
		c-0.3-0.3-0.9-0.4-1.2-0.1l-0.8,0.8c-0.3-0.3-0.6-0.7-1-1c-0.2-0.2-0.4-0.4-0.6-0.6l0.8-1.4c0.2-0.4,0.1-0.9-0.4-1.1
		c-0.4-0.2-1-0.1-1.2,0.3L19.5,5c-0.6-0.4-1.2-0.8-1.9-1.1l0.4-1.5c0.1-0.4-0.2-0.9-0.6-1c-0.5-0.1-1,0.1-1.1,0.6L16,3.2
		c-0.7-0.2-1.5-0.4-2.3-0.5l0-1.5c0-0.4-0.4-0.8-0.9-0.8c-0.5,0-0.9,0.4-0.9,0.8l0,1.4c-0.9,0-1.7,0.2-2.5,0.4L9,1.9
		C8.9,1.5,8.4,1.2,8,1.4c-0.5,0.1-0.8,0.6-0.6,1l0.4,1.4C7,4.1,6.4,4.4,5.8,4.8l-0.6-1C5,3.4,4.4,3.3,4,3.5C3.6,3.8,3.4,4.3,3.7,4.7
		l0.7,1.2C4.1,6.1,3.8,6.3,3.6,6.6C3.3,6.9,3,7.2,2.7,7.5L2.1,6.9C1.8,6.6,1.3,6.7,0.9,7C0.6,7.3,0.5,7.9,0.9,8.2l0.7,0.7
		c-0.6,0.8-0.9,1.4-0.9,1.5c-0.2,0.5-0.1,1,0.4,1.3c0.5,0.2,1,0.1,1.3-0.4c0,0,0,0,0,0c0-0.1,0.3-0.4,0.6-1l2,2
		c-0.4,0.5-0.8,0.9-1.1,1.4c-0.1,0.1-0.2,0.2-0.2,0.3c-0.1,0.1-0.2,0.2-0.3,0.4c-0.7,1-1.1,1.7-1.1,1.8c-0.3,0.5-0.1,1.2,0.4,1.4
		c0.2,0.1,0.3,0.1,0.5,0.1c0.4,0,0.7-0.2,0.9-0.6c0,0,0,0,0,0c0-0.1,0.1-0.2,0.3-0.5c0.4,0.5,1,1.1,1.7,1.7c0.8,0.7,1.7,1.5,2.8,2.1
		c1.1,0.6,2.3,1,3.6,1c1.3,0,2.6-0.5,3.6-1.1c1.6-1,3-2.3,4-3.4c0.3-0.3,0.5-0.6,0.8-0.9c0.1,0.1,0.2,0.3,0.3,0.4
		c0.1,0.2,0.2,0.3,0.3,0.5c0,0.1,0.1,0.1,0.1,0.1c0,0,0,0,0,0c0.3,0.5,1,0.6,1.5,0.3c0.5-0.3,0.6-1,0.3-1.5c0,0-1.1-1.7-2.8-3.5
		l1.8-1.8c0.2,0.3,0.4,0.6,0.5,0.8c0.1,0.1,0.1,0.2,0.1,0.2c0,0,0,0,0,0.1c0,0,0,0,0,0c0.2,0.3,0.5,0.5,0.8,0.5c0.1,0,0.3,0,0.4-0.1
		c0.5-0.2,0.6-0.8,0.4-1.3C24.6,10.6,24.2,10,23.6,9.1z M17.2,5.7c0.5,0.3,1,0.6,1.4,0.9l-1.6,2.8c0,0-0.1,0-0.1-0.1
		c-0.2-0.1-0.4-0.2-0.6-0.3c0,0,0,0,0-0.1L17.2,5.7z M15.5,5l-0.9,3.3c-0.3-0.1-0.6-0.1-0.8-0.2c0,0,0,0,0-0.1l-0.1-3.5
		C14.3,4.7,14.9,4.9,15.5,5z M11.9,4.6L12,8.1c-0.4,0-0.8,0.1-1.2,0.2L9.9,5C10.5,4.8,11.2,4.7,11.9,4.6z M8.2,5.6l0.9,3.3
		C8.8,9,8.6,9.1,8.3,9.3L6.7,6.4C7.2,6.1,7.7,5.8,8.2,5.6z M5.1,7.8c0.1-0.1,0.2-0.1,0.2-0.2l1.6,2.7c-0.3,0.2-0.5,0.4-0.8,0.7
		L4,8.8C4.3,8.5,4.7,8.1,5.1,7.8z M17.1,16.8c-0.7,0.7-1.5,1.3-2.3,1.8c-0.8,0.5-1.6,0.7-2.4,0.7c-0.8,0-1.7-0.3-2.6-0.7
		c-1.3-0.7-2.5-1.8-3.3-2.7c-0.4-0.4-0.7-0.7-0.9-1c0.3-0.4,0.7-0.9,1.1-1.3c0.3-0.3,0.7-0.7,1-1c0,2.6,2.1,5.6,4.7,5.6
		s4.7-3,4.7-5.6c0-0.1,0-0.2,0-0.2c0.8,0.6,1.6,1.4,2.2,2C18.9,14.8,18.1,15.8,17.1,16.8z M19.2,11.1c-0.2-0.2-0.5-0.4-0.7-0.6
		L20,7.8c0.1,0.1,0.2,0.2,0.3,0.3c0.3,0.3,0.7,0.7,0.9,1L19.2,11.1z"/>
</g>
</svg>
