<?xml version="1.0" encoding="utf-8"?>
<!-- Generator: Adobe Illustrator 17.1.0, SVG Export Plug-In . SVG Version: 6.00 Build 0)  -->
<!DOCTYPE svg PUBLIC "-//W3C//DTD SVG 1.1//EN" "http://www.w3.org/Graphics/SVG/1.1/DTD/svg11.dtd">
<svg version="1.1" id="Layer_1" xmlns="http://www.w3.org/2000/svg" xmlns:xlink="http://www.w3.org/1999/xlink" x="0px" y="0px"
	 viewBox="0 0 23 17.9" enable-background="new 0 0 23 17.9" xml:space="preserve">
<g>
	<path fill="#FFFFFF" stroke="#FFFFFF" stroke-miterlimit="10" d="M22.5,1.4C22.5,1.4,22.5,1.4,22.5,1.4c0-0.3-0.2-0.5-0.4-0.7
		c0,0,0,0,0,0c-0.1,0-0.2-0.1-0.2-0.1c0,0,0,0,0,0c-0.1,0-0.2-0.1-0.3-0.1h-20c-0.1,0-0.2,0-0.3,0.1c0,0,0,0,0,0
		C1.1,0.6,1.1,0.6,1,0.7c0,0,0,0,0,0C0.7,0.8,0.6,1.1,0.5,1.4c0,0,0,0,0,0c0,0,0,0.1,0,0.1v14.9c0,0.6,0.5,1,1,1h20c0.6,0,1-0.5,1-1
		V1.5C22.5,1.5,22.5,1.4,22.5,1.4z M21.5,15.7l-6.9-5.6l6.9-7.1V15.7z M1.5,3l6.4,7.2l-6.4,5.3V3z M1.5,1.5h20l-7.7,7.9l-0.7,0.7
		l0,0l-2,2.1l-1.8-2L8.7,9.6L8.4,9.2L7.6,8.3L1.5,1.5z M8.6,10.9l1.8,2c0.2,0.2,0.4,0.3,0.7,0.3h0c0.3,0,0.5-0.1,0.7-0.3l2.1-2.1
		l6.9,5.6H1.9L8.6,10.9z"/>
</g>
</svg>
