<?xml version="1.0" encoding="utf-8"?>
<!-- Generator: Adobe Illustrator 17.1.0, SVG Export Plug-In . SVG Version: 6.00 Build 0)  -->
<!DOCTYPE svg PUBLIC "-//W3C//DTD SVG 1.1//EN" "http://www.w3.org/Graphics/SVG/1.1/DTD/svg11.dtd">
<svg version="1.1" id="Layer_1" xmlns="http://www.w3.org/2000/svg" xmlns:xlink="http://www.w3.org/1999/xlink" x="0px" y="0px"
	 viewBox="0 0 10.5 24.9" enable-background="new 0 0 10.5 24.9" xml:space="preserve">
<g>
	<g>
		<path fill="#FFFFFF" stroke="#FFFFFF" stroke-miterlimit="10" d="M5.8,0.6c-1.1,0.1-5.2,2-5.3,11.6C0.4,22.3,4.7,24.4,5.8,24.4
			v-6.7c-0.9,0-1.1-1-1.3-3.1c-0.1-1.4-0.2-3.1,0-4.8c0.1-1.2,0.3-2.4,1.3-2.4L5.8,0.6z"/>
	</g>
	<g>
		<path fill="#FFFFFF" stroke="#FFFFFF" stroke-miterlimit="10" d="M9.2,24.4c0.4,0,0.7-0.4,0.7-0.7l0,0c0,0,0-5.2,0-5.2
			c0-0.4-0.3-0.7-0.7-0.7H7.3v6.7H9.2L9.2,24.4z"/>
	</g>
	<g>
		<path fill="#FFFFFF" stroke="#FFFFFF" stroke-miterlimit="10" d="M9.2,7.4c0.4,0,0.7-0.4,0.7-0.7l0,0c0,0,0-5.4,0-5.4
			c0-0.4-0.3-0.7-0.7-0.7H7.3v6.9C7.3,7.4,9.2,7.4,9.2,7.4L9.2,7.4z"/>
	</g>
</g>
</svg>
