<?xml version="1.0" encoding="utf-8"?>
<!-- Generator: Adobe Illustrator 17.1.0, SVG Export Plug-In . SVG Version: 6.00 Build 0)  -->
<!DOCTYPE svg PUBLIC "-//W3C//DTD SVG 1.1//EN" "http://www.w3.org/Graphics/SVG/1.1/DTD/svg11.dtd">
<svg version="1.1" id="Layer_1" xmlns="http://www.w3.org/2000/svg" xmlns:xlink="http://www.w3.org/1999/xlink" x="0px" y="0px"
	 viewBox="259.9 11.5 94.7 127" enable-background="new 259.9 11.5 94.7 127" xml:space="preserve">
<g>
	<g>
		<g>
			<g id="XMLID_9_">
				<path fill="#676767" d="M354.6,11.7c0,26.2,0,52.6,0,78.9c0,0,0,0,0,0c-0.5,10.8-3.6,18.8-8.4,25.2c-3.6,4.9-8,8.9-13,12.3
					c-0.8,0.6-1.7,1.1-2.6,1.6c-0.9,0.5-1.8,1-2.7,1.5c-5.9,3.2-12.5,5.8-20.2,7.2c-0.4,0.1-0.5,0-0.9,0c-6.3-1.1-11.6-3.1-16.7-5.5
					c-3.8-1.8-7.5-3.8-10.6-6.2c-6.5-4.9-11.8-10.6-15.4-18.3c-2.2-4.8-3.7-10.4-4.1-17c-0.1-1.3-0.1-2.7-0.1-4.2
					c0-25.2,0-50.5,0-75.8c23.6,0,47.2,0,70.8,0c7.9,0,15.7,0,23.6,0c0,0,0.1,0,0.2,0C354.6,11.5,354.6,11.5,354.6,11.7z
					 M353.6,87.5c0-25,0-50,0-74.9c-0.9-0.1-2,0-3,0c-29.8,0-59.8,0-89.5,0c0,0,0,0,0,0.1c0,25,0,50,0,74.9c0,1.8,0,3.5,0.1,5.2
					c0.1,1.6,0.3,3.2,0.6,4.8c2.1,12,8.3,20.3,16.1,26.7c2,1.6,4.1,3.1,6.3,4.4c4.5,2.7,9.3,4.9,14.7,6.7c2.5,0.8,5.2,1.6,8,2
					c0.2,0,0.4,0.1,0.6,0.1c0.2,0,0.4-0.1,0.5-0.1c2.8-0.5,5.5-1.2,8-2c5.4-1.8,10.2-4.1,14.7-6.7c1.1-0.7,2.2-1.3,3.3-2.1
					c1-0.8,2-1.5,3-2.3c7.8-6.5,14-14.7,16.1-26.7c0.3-1.5,0.5-3.1,0.6-4.8C353.6,91,353.6,89.3,353.6,87.5z"/>
				<path fill="#676767" d="M352.7,52c0.1,1.3-0.4,2.2-1,2.9c-0.7,0.7-1.4,1.2-2.7,1.3c-1.3,0.1-2.3-0.4-2.9-1
					c-0.7-0.6-1.2-1.4-1.3-2.6c-0.1-1.3,0.4-2.2,1-2.9c0.3-0.3,0.6-0.6,1.1-0.9c0.4-0.2,1-0.4,1.6-0.4c1.3-0.1,2.3,0.4,2.9,1
					C352.1,50.1,352.6,50.9,352.7,52z M350.1,55.1c1-0.5,1.9-1.4,1.8-2.8c0-1.1-0.5-1.8-1-2.3c-0.5-0.5-1.4-0.9-2.5-0.8
					c-0.8,0.1-1.3,0.3-1.7,0.7c-0.5,0.4-0.8,0.8-1,1.3c-0.3,0.6-0.3,1.4-0.1,2C346.1,54.8,348.1,56.1,350.1,55.1z"/>
				<path fill="#676767" d="M352.6,72.2c0.1,1.3-0.4,2.2-1,2.9c-0.7,0.7-1.5,1.1-2.7,1.2c-1.3,0.1-2.2-0.4-2.9-1
					c-0.7-0.6-1.2-1.4-1.3-2.6c-0.1-1.3,0.4-2.2,1-2.9c0.3-0.3,0.6-0.6,1.1-0.9c0.4-0.2,1-0.4,1.6-0.4c1.2-0.1,2.3,0.4,2.9,1
					C352,70.2,352.6,71,352.6,72.2z M351.7,73.6c0.4-0.9,0.3-2.2-0.3-3c-0.5-0.7-1.5-1.4-3-1.3c-1,0.1-1.6,0.5-2.1,1
					s-0.9,1.2-0.9,2.2c0,1.2,0.6,1.9,1.3,2.4c0.8,0.5,1.9,0.8,3,0.5C350.6,75.1,351.4,74.5,351.7,73.6z"/>
				<path fill="#676767" d="M352.6,40.4c-0.1,0.2,0.1,0.6,0,0.8c0,0.1-0.3,0.2-0.5,0.3c-1,0.6-2.2,1.4-3.2,2
					c0.1-1.1-0.2-1.8-0.8-2.2c-0.7-0.4-1.7-0.1-2,0.4c-0.5,0.6-0.3,1.7-0.4,2.8c2.3,0,4.6,0,6.9,0c0,0.2,0,0.5,0,0.7
					c-2.5,0-5.1,0-7.6,0c0.1-1.3-0.2-2.5,0.2-3.3c0.3-0.8,1-1.4,2-1.5c1.3-0.1,2.3,0.6,2.4,1.8C350.6,41.7,351.6,40.9,352.6,40.4z"
					/>
				<path fill="#676767" d="M352.6,84.1c0,0.2,0,0.5,0,0.8c-2.5,0-5.1,0-7.6,0c0-0.2,0-0.5,0-0.8c1.1,0,2.3,0,3.4,0
					c0-1.2,0-2.4,0-3.6c-1.1,0-2.3,0-3.4,0c0-0.2,0-0.5,0-0.7c0,0,0-0.1,0-0.1c2.5,0,5.1,0,7.6,0c0,0.2,0,0.5,0,0.8
					c-1.2,0-2.3,0-3.4,0c0,1.2,0,2.4,0,3.6C350.2,84.1,351.4,84.1,352.6,84.1z"/>
				<path fill="#676767" d="M352.5,59.5c0,0.3,0,0.6,0,0.9c-2.2,1.4-4.5,2.8-6.7,4.2c2.2,0,4.5,0,6.7-0.1c0,0.2,0,0.5,0,0.8
					c-2.5,0-5.1,0-7.6,0c0.1-0.2-0.1-0.6,0-0.9c0-0.1,0.3-0.2,0.4-0.3c2.1-1.3,4.3-2.6,6.3-3.9c-2.2,0-4.5,0.1-6.7,0.1
					c0-0.2,0-0.5,0-0.7c0,0,0-0.1,0-0.1C347.5,59.5,350,59.5,352.5,59.5z"/>
				<path fill="#676767" d="M352.4,91.8c-0.1,1.1-0.2,2.3-0.4,3.4c-2.5-0.3-5-0.5-7.6-0.8c0-0.2,0.1-0.5,0.1-0.8
					c2.3,0.3,4.6,0.5,6.8,0.7c0.1-0.9,0.2-1.8,0.3-2.7C352,91.7,352.2,91.8,352.4,91.8z"/>
				<path fill="#676767" d="M351.3,15.2c0.4,0.4,0.3,1.4,0.3,2.3c0,1,0.1,2.1-0.5,2.5c-0.4,0.3-1.2,0.2-1.5-0.1
					c-0.4-0.4-0.3-1.6-0.3-2.3c0-1.3-0.1-2.5,1.1-2.6C350.7,14.9,351.1,15,351.3,15.2z M351.1,18.6c0-0.7,0-1.4,0-2.1
					c0-0.6-0.1-1.1-0.7-0.9c-0.4,0.1-0.5,0.5-0.5,1c0,0.3,0,0.7,0,1.1c0,0.6-0.1,1.7,0.2,1.9c0.2,0.1,0.6,0.1,0.7,0
					C351,19.3,351.1,18.9,351.1,18.6z"/>
				<path fill="#676767" d="M350.8,98.7c0.2,0.1,0.5,0.1,0.7,0.2c-0.3,1.3-0.7,2.5-1,3.8c-2.4-0.7-4.9-1.3-7.3-2
					c0.3-1.3,0.7-2.5,1-3.8c0.2,0.1,0.5,0.1,0.7,0.2c-0.3,1-0.5,2.1-0.8,3.1c0.8,0.2,1.7,0.5,2.6,0.7c0.3-1,0.5-2.1,0.9-3.1
					c0.2,0.1,0.5,0.1,0.7,0.2c-0.3,1-0.5,2-0.8,3.1c0.8,0.3,1.7,0.5,2.6,0.7C350.3,100.8,350.5,99.7,350.8,98.7z"/>
				<path fill="#676767" d="M348.7,20c-0.2,0-0.4,0-0.6,0c-0.2-0.6,0.1-2-0.5-2.3c-0.2-0.1-0.4,0-0.7,0c0,0.8,0,1.5,0,2.3
					c-0.2,0-0.4,0-0.5,0c0-1.7,0-3.4,0-5.1c0.8,0.1,1.6-0.2,2,0.3c0.5,0.5,0.4,2.2-0.5,2.2C349,17.5,348.4,19.2,348.7,20z M348,16.9
					c0.2-0.3,0.2-1-0.1-1.2c-0.2-0.2-0.6-0.1-1-0.2c0,0,0,0,0,0.1c0,0.5,0,1.1,0,1.6C347.4,17.2,347.8,17.3,348,16.9z"/>
				<path fill="#676767" d="M347.6,109.5c-0.1,0.3-0.3,0.5-0.4,0.8c-2.6,0.1-5.2,0.3-7.9,0.4c1.9,1.1,3.9,2.1,5.9,3.2
					c-0.1,0.2-0.2,0.4-0.3,0.6c-2.2-1.2-4.4-2.5-6.6-3.7c0.2-0.2,0.3-0.5,0.4-0.8c2.6-0.1,5.2-0.3,7.9-0.4c-1.9-1.1-3.9-2.1-5.9-3.2
					c0.1-0.2,0.2-0.5,0.4-0.6C343.1,107.1,345.3,108.3,347.6,109.5z"/>
				<path fill="#676767" d="M345.8,20c-0.2,0-0.4,0-0.6,0c-0.1-0.4-0.1-0.7-0.2-1.1c-0.3,0-0.7,0-1.1,0c-0.1,0.4-0.1,0.8-0.2,1.2
					c-0.2,0-0.4,0-0.5,0c0.3-1.7,0.6-3.4,0.9-5.1c0.2,0,0.5,0,0.7,0C345.2,16.7,345.5,18.4,345.8,20z M344.1,18.3c0.3,0,0.6,0,0.9,0
					c-0.2-0.9-0.3-1.8-0.5-2.7C344.4,16.5,344.2,17.4,344.1,18.3z"/>
				<path fill="#676767" d="M343.1,79.8c0,2.9,0,5.8,0,8.7c0,1.4-0.1,2.8-0.2,4.2c-0.1,1.3-0.3,2.6-0.6,3.8
					c-0.2,1.2-0.5,2.4-0.9,3.5c-0.7,2.2-1.6,4.3-2.7,6.1c-3.2,5.5-7.7,9.8-13,13.1c-2.6,1.7-5.6,3.2-8.6,4.5c-2.8,1.2-5.8,2.2-9,3
					c-0.3,0.1-0.7,0.2-0.9,0.2s-0.6-0.1-0.9-0.2c-2-0.5-4.1-1.1-5.9-1.8c-6.4-2.3-12.1-5.4-16.8-9.4c-4.7-4.1-8.6-8.9-10.6-15.5
					c-1-3.3-1.6-7.1-1.6-11.5c0-21.8,0-43.6,0-65.5c0,0,0,0,0-0.1c11.9,0,23.8,0,35.7,0c11.9,0,23.8-0.1,35.7,0c0.1,0,0.2,0,0.2,0
					c0.1,0,0,0,0.1,0.1c0.1,0.3,0,0.7,0,1.1C343.1,42.8,343.1,61.3,343.1,79.8z M342.3,90.9c0.1-1,0.1-2.1,0.1-3.1
					c0-21.1,0-42.3,0-63.5c-0.6,0.5-1.2,1.2-1.8,1.8c-2.7,2.7-5.3,5.3-7.9,7.9c-0.3,0.3-0.6,0.6-0.9,0.9c-0.9,1.3-1.7,2.7-2.6,4
					c-0.1,0.1-0.2,0.2-0.1,0.3c3.9,1,7.8,1.9,11.7,2.9c-3.7,0.8-7.5,1.7-11.2,2.5c1,1.8,2.1,3.5,3.1,5.3c-1.8-1.1-3.6-2.2-5.4-3.2
					c-1,3.9-1.9,7.9-2.9,11.8c-0.9-4-1.9-7.9-2.9-11.8c-1.3,0.7-2.5,1.6-3.7,2.3c-0.6,0.4-1,1-1.5,1.5c-14.5,14.5-28.8,29-43.3,43.5
					c-0.2,0.2-0.3,0.3-0.3,0.4c0,0.2,0.1,0.4,0.1,0.7c0.1,0.7,0.2,1.4,0.4,2c1,4.4,2.7,7.9,4.8,11.1c0.9,1.2,1.9,2.4,2.9,3.5
					c2,2.2,4.3,4.2,6.8,5.9c2.5,1.7,5.2,3.2,8.1,4.6c3.3,1.5,6.8,2.8,10.5,3.7c0.4,0.1,0.9,0.3,1.3,0.2c6-1.4,11.3-3.7,15.9-6.3
					c2.7-1.5,5.2-3.3,7.4-5.3c2.3-2,4.3-4.2,6-6.7c1.7-2.5,3.1-5.4,4-8.7c0.5-1.6,0.8-3.4,1.1-5.2C342.1,92.9,342.2,91.9,342.3,90.9
					z M341.4,23.9C341.4,23.9,341.5,23.9,341.4,23.9c-0.1-0.2-0.7-0.1-1-0.1c-22.7,0-45.5,0-68.1,0c0,0,0,0,0,0.1
					c0,20.2,0,40.5,0,60.8c0,2.9-0.1,5.8,0.2,8.5c0.1,0,0.1-0.1,0.2-0.1c14.6-14.6,29.1-29.3,43.7-43.9c0.2-0.2,0.5-0.5,0.7-0.8
					c0.4-0.6,0.8-1.2,1.1-1.8c0.3-0.5,0.7-1.1,1-1.6c0-0.1,0.1-0.1,0.1-0.2c-3.8-0.9-7.7-1.7-11.6-2.6c4-0.9,8-1.9,11.9-2.8
					c-1.1-1.9-2.3-3.8-3.4-5.7c1.6,1,3.4,2,5,2.9c0.1,0.1,0.2,0.2,0.3,0.2c0.9-3.5,1.8-7.1,2.7-10.6c0.9,3.6,1.8,7.2,2.8,10.7
					c1.1-0.6,2.1-1.3,3.2-1.9c0.2-0.1,0.4-0.2,0.5-0.3c0.2-0.1,0.3-0.3,0.4-0.4c2.3-2.3,4.5-4.6,6.8-6.8
					C339.2,26.1,340.4,25.1,341.4,23.9z M324.9,41.8c4,0,8,0,12,0c-3.2-0.7-6.4-1.5-9.7-2.3c-0.7,0.6-1.5,1.5-2.2,2.2
					C325,41.7,324.9,41.7,324.9,41.8z M331,47.7C331.1,47.8,331.1,47.8,331,47.7c-0.6-1-1.2-2.1-1.9-3.1c-0.3,0.1-0.6,0.1-0.9,0.2
					C329.1,45.8,330.1,46.8,331,47.7z M327.5,38.2c1-0.9,2.1-2,3-3c-1.1,0.7-2.2,1.3-3.2,2C327.4,37.6,327.5,37.9,327.5,38.2z
					 M327,45.7c0.1-0.2,0.2-0.5,0.1-0.6c0-0.2-0.4-0.5-0.5-0.6c-0.6-0.6-1.2-1.1-1.7-1.7c0,0,0,0,0,0c0,4,0,8,0,11.9
					C325.5,51.8,326.3,48.7,327,45.7z M324.4,41c0-0.1,0-0.5,0-0.7c0-3.8,0-7.5,0-11.2c-0.4,1.6-0.7,3.1-1.2,4.8
					c-0.3,1.4-0.7,2.8-1,4.2c0,0.2-0.2,0.5-0.2,0.6c0,0.2,0.4,0.5,0.6,0.6c0.6,0.5,1,1.1,1.6,1.6C324.3,41,324.4,41.1,324.4,41z
					 M323.3,42.1c0.1-0.1,0.2-0.1,0.1-0.1c-0.1-0.1-0.5,0-0.7,0c-3.8,0-7.5,0-11.2,0c2.9,0.7,6.1,1.4,9,2.1c0.2,0,0.5,0.2,0.6,0.1
					c0.2,0,0.5-0.4,0.6-0.6C322.2,43.2,322.7,42.7,323.3,42.1z M321.1,38.9c0-0.1,0.2-0.3,0.1-0.5c0-0.1-0.3-0.3-0.4-0.4
					c-1-1-2-2-2.9-2.9c0.8,1.3,1.6,2.7,2.5,4C320.6,39,320.8,39,321.1,38.9z M321.3,46c-0.1-0.3-0.2-0.7-0.3-1
					c-0.2,0.1-0.3,0.2-0.4,0.4c-0.9,0.9-1.9,1.9-2.8,2.8C319,47.4,320.2,46.7,321.3,46z"/>
				<path fill="#676767" d="M342.8,15c0,0.2,0,0.4,0,0.6c-0.3,0-0.6,0-0.9,0c0,1.5,0,3,0,4.5c-0.2,0-0.4,0-0.5,0c0-1.5,0-3,0-4.5
					c-0.3,0-0.6,0-0.9,0c0-0.2,0-0.4,0-0.6C341.2,15,342,15,342.8,15z"/>
				<path fill="#676767" d="M342,117c0.1,0.1,0.2,0.2,0.2,0.3c-0.9,0.9-1.8,1.9-2.7,2.8c-1.7-1.6-3.4-3.3-5.2-4.9
					c-0.1-0.1-0.3-0.3-0.3-0.3c0-0.1,0.2-0.2,0.3-0.3c0.8-0.8,1.6-1.7,2.4-2.5c0.1,0.1,0.2,0.1,0.3,0.3c0.1,0.1,0.3,0.2,0.3,0.2
					c0,0.1-0.2,0.2-0.3,0.3c-0.6,0.6-1.3,1.4-1.9,2c0.5,0.5,1.1,1,1.7,1.6c0.1,0.1,0.2,0.2,0.2,0.2c0.1,0,0.5-0.5,0.6-0.6
					c0.5-0.5,0.9-0.9,1.4-1.4c0.1-0.1,0.2-0.3,0.3-0.3c0,0,0.2,0.2,0.3,0.2c0.1,0.1,0.2,0.2,0.3,0.3c-0.6,0.7-1.3,1.3-1.9,2
					c-0.1,0.1-0.3,0.2-0.3,0.3c0,0.1,0.2,0.2,0.2,0.2c0.5,0.5,1,0.9,1.5,1.4c0,0,0.2,0.2,0.2,0.2c0.1,0,0.5-0.5,0.5-0.6
					c0.5-0.5,0.9-0.9,1.4-1.4c0.1-0.1,0.2-0.3,0.3-0.3C341.8,116.7,342,117,342,117z"/>
				<path fill="#676767" d="M339.9,19.5c0,0.2,0,0.4,0,0.5c-0.6,0-1.2,0-1.8,0c0-1.7,0-3.4,0-5.1c0.6,0,1.2,0,1.8,0
					c0,0.2,0,0.4,0,0.6c-0.4,0-0.8,0-1.3,0c0,0.5,0,1.1,0,1.6c0.4,0,0.8,0,1.2,0c0,0.2,0,0.4,0,0.5c-0.4,0-0.8,0-1.2,0
					c0,0.6,0,1.2,0,1.7C339,19.5,339.5,19.5,339.9,19.5z"/>
				<path fill="#676767" d="M337.5,20c-0.2,0-0.4,0-0.6,0c-0.2-0.6,0.1-2-0.5-2.3c-0.2-0.1-0.4,0-0.7,0c0,0.7,0,1.5,0,2.3
					c-0.2,0-0.4,0-0.6,0c0-1.7,0-3.4,0-5.1c0.8,0.1,1.5-0.2,2,0.2c0.5,0.5,0.4,2.2-0.5,2.3C337.7,17.5,337.2,19.2,337.5,20z
					 M336.7,17c0.2-0.3,0.2-1,0-1.3c-0.2-0.2-0.6-0.1-1-0.2c0,0,0,0,0,0.1c0,0.5,0,1.1,0,1.6C336.1,17.1,336.5,17.3,336.7,17z"/>
				<path fill="#676767" d="M335.3,80.9c0,1-0.5,1.6-1.1,2.1c-0.3,1.7-0.8,3.2-1.8,4.2c0.7,1.7,1.3,3.5,1.3,5.8
					c0.1,2.3-0.3,4.2-0.9,5.9c0,0.1-0.1,0.2-0.1,0.3c0,0.1,0.1,0.3,0.2,0.4c0.4,0.8,0.9,1.7,1.2,2.6c0.4,1,0.8,2.1,0.8,3.5
					c0.1,2.2-0.7,3.7-2.2,4.4c-0.4,0.2-0.8,0.3-1.3,0.3c-0.2,0-0.4,0-0.5,0.1c-0.1,0-0.1,0.2-0.2,0.3c-0.4,0.6-1.4,1.2-2.6,0.9
					c-1-0.3-1.7-1.1-1.8-2.3c-0.6-0.4-1.1-0.8-1.6-1.2c-1.9,1-4.1,1.6-6.8,1.7c-2.7,0.1-4.9-0.5-6.8-1.3c-0.1,0-0.3-0.2-0.4-0.2
					c-0.1,0-0.4,0.3-0.5,0.4c-1.1,0.9-2.6,1.7-4.5,1.9c-0.6,0.1-1.2,0-1.7-0.1c-1.7-0.1-2.6-1.1-3.1-2.4c-1.1-0.2-2-1-2-2.4
					c0-1.3,0.9-2.1,2-2.3c0.3-1.1,0.8-2.2,1.3-3.3c0.1-0.2,0.2-0.3,0.2-0.4c0-0.1-0.2-0.6-0.3-0.7c-0.3-0.7-0.5-1.5-0.7-2.3
					c-0.2-1.1-0.3-2.3-0.3-3.6c0-2.6,0.7-4.5,1.5-6.4c0-0.1-0.1-0.2-0.2-0.3c-0.9-1.1-1.6-2.4-1.7-4.4c-0.1-0.7-0.1-1.4,0.1-2.1
					c0.2-0.7,0.6-1.3,1.1-1.8c0.5-0.5,1.2-0.8,1.9-0.9c0.3-1.1,1-1.9,2.2-2c0.8-0.1,1.4,0.2,1.9,0.6c0.4,0.4,0.7,1,0.8,1.7
					c1,0.3,1.9,0.6,2.8,0.9c0.9-0.4,1.9-0.7,2.9-0.9c2.1-0.4,4.8-0.3,6.8,0.1c0.7,0.2,1.5,0.4,2.2,0.7c0.2,0.1,0.5,0.3,0.7,0.3
					c0.1,0,0.4-0.2,0.6-0.3c1.3-0.7,2.8-1.3,4.5-1.6c2.3-0.4,4.3,0.2,4.9,1.9C334.8,79.3,335.3,79.9,335.3,80.9z M331.3,109.6
					c2.2,0,3.1-1.8,2.9-4c-0.2-2.2-1.1-3.7-1.8-5.2c-1.5,3.2-3.7,5.6-6.7,7.4c0.3,0.3,0.6,0.5,1,0.8c0.4-0.8,1.1-1.5,2.4-1.4
					C330.4,107.1,331.2,108.2,331.3,109.6z M333.3,83.3c-1.5,0.1-2.6-0.8-2.7-2.1c-0.1-1.5,0.9-2.5,2.3-2.6
					c-0.6-0.6-1.6-0.8-2.7-0.8c-2,0.1-3.6,0.9-5.1,1.6c3,1.6,5.3,4,6.9,7C332.6,85.5,333,84.5,333.3,83.3z M332.2,98.2
					c0.6-1.8,0.8-4.1,0.6-6.2c-0.2-2.1-0.9-3.9-1.6-5.4c-1.6-3.1-4-5.4-7.1-6.9c-1.8,1-3.4,2-5,3.2
					C324.3,87.3,328.7,92.3,332.2,98.2z M331.6,99.8c0.1-0.2,0.2-0.4,0.2-0.5s-0.2-0.4-0.3-0.6c-0.3-0.6-0.7-1.2-1-1.7
					c-3.3-5.2-7.4-9.8-12.1-13.5c-1.1,0.9-2.3,1.8-3.4,2.8c-0.1,0.1-0.2,0.2-0.2,0.2c0.3,0,0.9-0.1,0.8,0.2c0.2,0,0.3,0.1,0.2,0.3
					c0,0,0.1,0,0.1,0c0,0.2,0,0.5,0,0.7c0,0,0.1,0,0.1,0c0,0.2,0.1,0.3,0.2,0.3c0,0.2,0,0.4,0,0.6c0,0,0.1,0,0.1,0
					c0,0.2,0,0.3,0,0.5c0,0-0.1,0-0.1,0c0,0.1,0,0.2,0,0.4c0,0.1,0.2,0.1,0.2,0.2c0.4,0,0.2,0.5,0.2,0.8c0.5,0,1-0.1,1.4,0
					c0,0.1,0,0.1,0,0.1c0.8,0.2,1.7,0,2.6,0c0,0.1,0.1,0.2,0.1,0.2c0,0,0.1,0,0.1,0c0,0,0,0.1,0,0.1c0.2,0,0.2,0.2,0.5,0.1
					c0,0.1,0,0.1,0,0.2c0.2,0.2,0.4,0.2,0.5,0.4c0,0,0.1,0,0.1,0c0,0.2,0.1,0.2,0.1,0.2c0.5,0,1.1-0.1,1.6,0c0,0,0,0.1,0,0.1
					c0.1,0,0.2,0,0.2,0c0,0.1,0,0.2,0.1,0.3c0,0.1,0.1,0,0.2,0.1c0,0,0,0.1,0,0.1c0.2,0,0.3,0.2,0.2,0.4c0,0,0.1,0,0.1,0
					c0,0.1,0,0.2,0,0.4c0.1,0.1,0.1,0.1,0.2,0.1c0,0.1,0.1,0.1,0.1,0.1c0,0,0,0.1,0,0.1c0.2,0,0.1,0.2,0.2,0.2
					c0.1,0.3,0.4,0.3,0.5,0.6c0.2,0,0.3,0,0.4,0.1c0,0.4,0.3,0.5,0.5,0.7c0.4,0,0.8,0.2,1.2,0.2c0,0.1,0,0.2,0,0.3c0,0,0.1,0,0.1,0
					c0,0.3,0,0.5,0,0.8c-0.4,0.1-0.5,0.5-1,0.6c-0.2,0.2-0.4,0.4-0.6,0.6c0,0.3-0.3,0.2-0.2,0.5c-0.1,0-0.1,0-0.2,0.1
					c-0.1,0.3-0.3,0.5-0.6,0.6c0-0.1,0.1-0.1,0-0.2c-0.1,0.1-0.1,0.1-0.1,0.2c-0.1,0-0.1,0-0.2,0c-0.1,0.3-0.6,0.1-0.6,0.5
					c-0.2,0-0.3,0-0.3,0.1c0,0.1,0,0.2,0,0.2c0,0-0.1,0-0.1,0c0,0.2,0,0.4,0,0.6c0,0-0.1,0-0.1,0c0,0.2,0,0.2-0.1,0.3
					c0,0.1,0,0.2,0,0.3c-0.2,0-0.1,0.2-0.2,0.1c0,0.2,0,0.2-0.1,0.3c-0.1,0.2-0.5,0.2-0.4,0.5c-0.2,0-0.3,0-0.3,0.1
					c0,0.1,0,0.2-0.1,0.3c-0.1,0.1-0.3,0-0.4,0.2c0.1,0.4-0.3,0.3-0.5,0.5c0,0.2,0,0.3-0.1,0.4c-0.4-0.1-0.3,0.3-0.5,0.5
					c-0.1,0-0.2,0.1-0.3,0.1c-0.1,0.1,0,0.4-0.2,0.4c-0.2,0-0.3,0-0.3,0.1c0,0.1,0,0.2,0,0.2c0,0-0.1,0-0.1,0c-0.1,0.5,0,1.1,0,1.7
					c-0.1,0-0.2,0.1-0.3,0.1c0,0,0-0.1,0-0.1c-0.1,0.1-0.1,0.2-0.1,0.3c0,0-0.1,0-0.1,0c0,0.2-0.2,0.2-0.2,0.3c0,0.6,0,1.2,0,1.8
					c3.1-0.5,5.5-1.6,7.6-3.3C329.1,104.1,330.6,102.2,331.6,99.8z M321.9,80.1c0.4-0.2,0.8-0.5,1.2-0.8c-1.6-0.6-3.7-1.1-5.9-1
					c-1.6,0.1-3.1,0.3-4.4,0.8c2.1,0.9,3.9,2.1,5.6,3.4C319.5,81.7,320.7,80.9,321.9,80.1z M318.7,109c0-0.4-0.1-0.8-0.1-1.1
					c-0.1-0.1-0.4-0.1-0.6-0.1c0-0.1,0-0.2,0-0.2c0,0,0.1,0,0.1,0c0-0.1,0-0.2,0-0.3c-0.2-0.1-0.4-0.2-0.3-0.5c-0.1,0-0.1,0-0.1,0
					c-0.1-0.4,0-0.8,0-1.2c-0.2-0.1-0.3-0.2-0.2-0.4c0,0-0.1,0-0.1,0c0-0.2,0-0.3,0-0.5c0,0,0.1,0,0.1,0c0-0.2,0-0.3,0-0.5
					c0.1,0,0.1-0.2,0.2-0.1c-0.1-0.5,0.2-0.5,0.5-0.6c0-0.1,0-0.2,0-0.3c0,0,0.1,0,0.1,0c0.1-0.6,0-1.3,0-1.9c0-0.9,0.2-2.1,0-3
					c0-0.1-0.1,0-0.1,0c0-0.5-0.4-0.5-0.6-0.7c0,0,0,0,0,0c-0.1-0.1-0.2-0.2-0.3-0.3c0,0,0.2-0.1,0.1-0.1c-0.4,0.1-0.5-0.2-0.6-0.4
					c0.1,0,0.2,0.1,0.2,0c-0.3,0-0.5-0.1-0.5-0.4c0,0-0.2,0-0.2-0.1c0-0.1,0-0.1,0-0.2c-0.1,0-0.1,0-0.1,0c0-0.5,0-1.1,0-1.6
					c0,0,0.1,0,0.1,0c0-0.3,0-0.6,0-1c0.2,0,0.1-0.1,0.3-0.1c0.1-0.1,0.1-0.2,0.1-0.3c0.1,0,0.1,0,0.1,0c-0.1-0.5,0.3-1.4-0.5-1.2
					c0-0.1-0.1-0.2-0.2-0.2c-0.1,0-0.1,0-0.2,0c0,0,0-0.1,0-0.1c-0.1,0-0.2,0-0.2,0c0-0.1,0-0.2,0-0.2c0,0-0.1,0-0.1,0
					c0-0.2,0-0.4,0-0.6c-0.4,0-0.8,0.1-1.2,0c-0.1,0,0-0.2-0.1-0.1c-0.1,0-0.2,0-0.3,0c-0.2-0.3-0.6-0.2-1-0.3
					c0.3,0,0.5-0.1,0.8-0.1c0,0,0,0,0,0c-0.7,0-1.5,0.2-2.1,0c0,0,0-0.2-0.1-0.1c-3,3-5.7,6.3-7.9,10.2c1.1,2.5,2.8,4.5,5,6.1
					C311.1,107.9,314.3,109.3,318.7,109z M317.5,97.4c0.1,0,0.1,0.1,0.2,0.1C317.6,97.4,317.5,97.3,317.5,97.4z M315.8,84.5
					c0.6-0.5,1.3-1,1.9-1.5c-1.6-1.2-3.3-2.3-5.2-3.1c-0.2-0.1-0.7-0.4-0.9-0.3c-0.1,0-0.3,0.1-0.5,0.2c-3.6,1.7-6.3,4.6-7.8,8.3
					c-0.5,1.4-0.9,2.9-1,4.6c-0.1,2.3,0.2,4.5,0.9,6.2c2-3.6,4.6-6.6,7.4-9.5c-0.1,0-0.2,0-0.2,0c0,0,0-0.1,0-0.1
					c-0.5,0.1-0.4-0.2-0.5-0.4c-0.1,0-0.2,0-0.4,0c-0.1-0.1-0.2-0.3-0.3-0.4c0-0.1,0-0.2,0-0.2c0,0-0.1,0-0.1,0
					c0-0.1-0.1-0.2-0.1-0.3c-0.1,0-0.2,0.1-0.4,0.1c-0.1,0-0.2-0.1-0.3,0c0,0.1,0.2,0,0.1,0.2c0,0,0.1,0,0.1,0c0,0.2,0,0.4,0,0.6
					c0,0,0.1,0,0.1,0c0,0.2,0,0.3,0,0.5c-0.2-0.1-0.5-0.1-0.6-0.3c-0.1-0.2,0.1-0.5-0.1-0.7c-0.1,0-0.2,0-0.3,0c0,0,0-0.1,0-0.1
					c-0.2,0-0.4,0-0.3-0.2c0,0-0.1,0-0.1,0c0,0,0-0.1,0-0.1c-0.2-0.1-0.4-0.1-0.6-0.1c-0.1,0,0,0.1,0,0.1c0,0-0.1-0.1-0.1-0.1
					c0,0,0,0,0,0c0-0.1,0.1-0.2,0.2-0.3c-0.1-0.1-0.1-0.3-0.1-0.5c0-0.1-0.1,0-0.1,0c0-0.2,0-0.3,0-0.5c-0.4,0-0.8,0.2-1.2,0
					c0.2-0.2,0.4-0.4,0.6-0.5c0.2,0,0.4,0,0.6,0c0-0.4,0.1-0.7,0.1-1.1c0.1,0,0.1,0,0.2,0c0-0.3-0.1-0.7,0-0.9c0.1,0,0.1,0,0.1,0
					c0-0.3,0.3-0.2,0.4-0.5c0.1,0,0.2,0,0.3,0c0.1,0,0-0.1,0-0.1c0.2,0,0.3,0,0.5,0c0,0,0-0.1,0-0.1c0.3,0,0.5,0,0.8,0
					c0,0.1,0,0.1,0,0.1c0.1,0,0.2,0,0.3,0c0,0,0,0.1,0,0.1c0.2,0,0.4,0,0.5,0c0,0.1,0,0.1,0,0.1c0.2,0,0.5,0,0.7,0
					c0.1,0.3,0.7,0.2,1.1,0.3c0,0,0,0.1,0,0.1c0.4-0.1,0.3,0.2,0.5,0.4c0.2,0,0.3,0,0.3,0.1c-0.1,0.3,0.4,0.2,0.5,0.4
					c0,0.1,0,0.2,0,0.3c0.1,0,0.2,0,0.3,0c0-0.2,0.1-0.3,0.2-0.2c0,0,0-0.1,0-0.1c0.1,0,0.2,0,0.2-0.1c0.2,0,0.4-0.1,0.5-0.2
					C314.6,84.6,315.2,84.6,315.8,84.5z M314.8,85.4c-0.2,0-0.5,0-0.7,0c0,0,0,0.1,0,0.1c-0.1,0-0.2,0-0.3,0
					c-0.1,0.2-0.4,0.3-0.6,0.4c0,0.2-0.2,0.1-0.1,0.2c-0.2,0-0.3,0-0.3,0.1c0,0.2,0,0.4-0.3,0.4c-0.2,0.1-0.1,0.4-0.1,0.6
					c0.1,0,0.1,0,0.1,0.1c0.1,0,0.1,0.1,0.2,0.1C313.3,86.7,314.1,86,314.8,85.4z M314.4,86.9c0.1,0,0.2-0.1,0.1-0.1
					C314.5,86.8,314.4,86.8,314.4,86.9z M313.9,87.4c0.1,0,0.3-0.1,0.2-0.2C314,87.3,313.9,87.3,313.9,87.4z M313.7,87.9
					c0-0.1,0-0.3,0-0.4c-0.2,0.2-0.4,0.3-0.5,0.6c0,0,0,0,0,0c0,0.1,0.1,0.1,0.1,0.2c0.2,0,0.3,0,0.4-0.1c0-0.1,0-0.2,0-0.2
					C313.7,87.9,313.7,87.9,313.7,87.9z M307.9,109.4c0.8-0.3,1.6-0.8,2.1-1.3c-3.1-1.6-5.4-4-7-7.1c-0.4,0.8-0.8,1.7-1.1,2.7
					c1,0.3,1.8,1,1.9,2.2c0.1,1.3-0.7,2.2-1.8,2.5c0.3,0.7,0.8,1.2,1.6,1.4c0.3,0.1,0.5,0.1,0.9,0.1c0.2,0,0.3,0.1,0.5,0.1
					C306.1,110,307,109.7,307.9,109.4z M310.4,79.1c-0.6-0.2-1.2-0.4-1.8-0.6c-0.4,0.9-1.1,1.6-2.3,1.6c-1.2,0-2.1-0.8-2.3-1.9
					c0,0,0,0,0,0c-1,0.3-2,1-2.2,2c-0.1,0.4-0.1,0.9-0.1,1.3c0,1.8,0.6,3.5,1.6,4.4C305,83,307.3,80.7,310.4,79.1z M308.2,86.7
					c0-0.3,0-0.6-0.1-0.9c0,0-0.1,0-0.1,0c0-0.2,0-0.5,0-0.7c-0.1-0.1-0.3-0.1-0.5-0.1c0,0.1,0,0.2,0,0.4c0,0-0.1,0-0.1,0
					c0,0.2,0,0.4,0,0.6c0,0,0.1,0,0.1,0c0,0.2,0,0.3,0,0.5C307.8,86.5,308,86.6,308.2,86.7z M308,87.8c0,0,0-0.1,0-0.1
					c-0.1,0-0.1,0-0.2,0.1C308,87.7,308,87.7,308,87.8z M307.9,87.4c0.1,0,0.1,0,0.1,0C308,87.4,307.9,87.4,307.9,87.4
					C307.9,87.4,307.9,87.4,307.9,87.4z"/>
				<path fill="#676767" d="M334.5,19.5c0,0.2,0,0.4,0,0.5c-0.6,0-1.2,0-1.8,0c0-1.7,0-3.4,0-5.1c0.6,0,1.2,0,1.8,0
					c0,0.2,0,0.4,0,0.6c-0.4,0-0.8,0-1.3,0c0,0.5,0,1.1,0,1.6c0.4,0,0.8,0,1.2,0c0,0.2,0,0.4,0,0.5c-0.4,0-0.8,0-1.2,0
					c0,0.6,0,1.2,0,1.7C333.6,19.5,334.1,19.5,334.5,19.5z"/>
				<path fill="#676767" d="M332.7,125.8c-0.2,0.2-0.4,0.3-0.6,0.4c-0.5-0.8-1.1-1.5-1.6-2.3c-1.6-0.8-3.2-1.6-4.8-2.4
					c0.2-0.2,0.5-0.3,0.7-0.5c1.3,0.7,2.6,1.4,3.9,2.1c-0.2-1.2-0.4-2.5-0.6-3.8c0-0.2-0.1-0.4-0.1-0.5c0-0.1,0.6-0.4,0.6-0.5
					c0,0,0,0,0,0c0.3,1.4,0.5,3.1,0.7,4.6c0,0.2,0,0.5,0.1,0.6c0.1,0.2,0.3,0.4,0.4,0.6C331.9,124.7,332.3,125.3,332.7,125.8z"/>
				<path fill="#676767" d="M331.9,17.4c0,1.1,0.1,2.2-0.6,2.6c-0.5,0.2-1.3,0-1.5-0.4c-0.1-0.2-0.1-0.4-0.2-0.6
					c-0.1-1.2,0.1-2.8,0-4c0,0,0,0,0-0.1c0.2,0,0.3,0,0.5,0c0,0.8,0,1.6,0,2.4c0,0.7-0.2,1.9,0.3,2.1c0.1,0.1,0.3,0.1,0.5,0
					c0.5-0.2,0.3-1.4,0.3-2.1c0-0.9,0-1.7,0-2.4c0.2,0,0.4,0,0.5,0C331.9,15.7,331.9,16.6,331.9,17.4z"/>
				<path fill="#676767" d="M329.2,19.5c0,0.2,0,0.4,0,0.6c-0.8-0.1-1.8,0.3-2.3-0.1c-0.4-0.4-0.3-1.5-0.3-2.3
					c0-1.3-0.1-2.6,1.1-2.7c1.4-0.1,1.2,1.2,1.2,2.6c0,0.8,0,1.5-0.3,1.9C328.8,19.5,329,19.5,329.2,19.5z M328.3,18
					c0-0.6,0.1-1.1,0-1.8c0-0.5-0.3-0.7-0.7-0.7c-0.4,0.1-0.5,0.6-0.5,1c0,0.3,0,0.7,0,1c0,0.6-0.1,1.6,0.2,1.9
					c0.2,0.1,0.5,0.1,0.7,0C328.4,19.3,328.3,18.6,328.3,18z"/>
				<path fill="#676767" d="M324.7,19.5c0,0.2,0,0.4,0,0.5c-0.6,0-1.2,0-1.8,0c0-1.7,0-3.4,0-5.1c0.6,0,1.2,0,1.8,0
					c0,0.2,0,0.4,0,0.6c-0.4,0-0.8,0-1.3,0c0,0.5,0,1.1,0,1.6c0.4,0,0.8,0,1.2,0c0,0.2,0,0.4,0,0.5c-0.4,0-0.8,0-1.2,0
					c0,0.6,0,1.2,0,1.7C323.8,19.5,324.2,19.5,324.7,19.5z"/>
				<path fill="#676767" d="M322.4,126.3c0.6,0.7,1.1,1.8,1,3c-0.2,2.4-2.4,2.9-4,3.9c-1.2-2.2-2.4-4.4-3.7-6.6
					c0.6-0.3,1.2-0.6,1.7-1c0.7-0.4,1.4-0.8,2.4-0.7C321,124.9,321.9,125.6,322.4,126.3z M322.6,129.2c0.1-1-0.4-1.9-0.9-2.5
					c-0.5-0.6-1.2-1.2-2.2-1.2c-0.6,0-1.1,0.3-1.6,0.5c-0.5,0.2-0.9,0.5-1.3,0.7c0.7,1.3,1.5,2.7,2.3,4c0.2,0.5,0.5,0.9,0.8,1.3
					C320.9,131.4,322.5,131,322.6,129.2z"/>
				<path fill="#676767" d="M321.8,15.3c0.5,0.5,0.3,1.6,0.3,2.4c0,0.9,0.1,1.9-0.5,2.3c-0.5,0.2-1.2,0-1.8,0.1c0-1.7,0-3.3,0-5
					c0,0,0,0,0-0.1C320.6,15,321.3,14.9,321.8,15.3z M321.6,17.4c0-0.7,0.1-1.5-0.2-1.8c-0.2-0.2-0.6-0.1-0.9-0.1c0,0,0,0,0,0.1
					c0,1.3,0,2.6,0,3.9c0.3,0,0.7,0.1,0.9-0.1C321.7,19.2,321.6,18.2,321.6,17.4z"/>
				<path fill="#676767" d="M320.1,106.7C320.2,106.8,320.1,106.8,320.1,106.7C320.1,106.8,320.1,106.7,320.1,106.7z"/>
				<path fill="#676767" d="M317.9,20c-0.2,0-0.4,0-0.6,0c0-0.4-0.1-0.8-0.2-1.2c-0.4,0-0.7,0-1.1,0c-0.1,0.4-0.1,0.8-0.2,1.2
					c-0.2,0-0.3,0-0.5,0c0.3-1.7,0.6-3.4,0.9-5.1c0.2,0,0.5,0,0.7,0C317.3,16.7,317.6,18.4,317.9,20z M316.1,18.3c0.3,0,0.6,0,0.9,0
					c-0.1-0.9-0.3-1.8-0.5-2.7C316.4,16.6,316.3,17.4,316.1,18.3z"/>
				<path fill="#676767" d="M317.5,97.5C317.6,97.5,317.6,97.5,317.5,97.5C317.6,97.5,317.5,97.5,317.5,97.5z"/>
				<path fill="#676767" d="M317.5,97.4C317.5,97.4,317.5,97.4,317.5,97.4C317.5,97.4,317.5,97.4,317.5,97.4z"/>
				<path fill="#676767" d="M316.6,134.4c-0.2,0-0.5,0.1-0.7,0.1c-0.5-0.7-0.8-1.5-1.3-2.2c-1.1,0.2-2.2,0.3-3.3,0.5
					c-0.2,0.8-0.4,1.7-0.6,2.5c-0.3,0-0.5,0.1-0.8,0.1c0.6-2.7,1.2-5.3,1.9-7.9c0.3,0,0.6-0.1,0.9-0.1
					C314,129.6,315.3,132,316.6,134.4z M311.4,132c0.9-0.1,1.9-0.3,2.8-0.4c-0.6-1.2-1.3-2.4-2-3.6C312,129.3,311.7,130.7,311.4,132
					z"/>
				<path fill="#676767" d="M314.7,15c0,1.7,0,3.4,0,5.1c-0.2,0-0.3,0-0.5,0c0-1.5,0-2.9,0-4.4c-0.3,1.4-0.5,2.9-0.8,4.4
					c-0.2,0-0.4,0-0.5,0c-0.2-1.5-0.5-2.9-0.8-4.3c0,1.4,0,2.9,0,4.3c-0.2,0-0.3,0-0.5,0c0-1.7,0-3.4,0-5.1c0.3,0,0.6,0,0.9,0
					c0.2,1.3,0.5,2.7,0.7,4c0.2-1.3,0.5-2.7,0.7-4C314.1,15,314.4,15,314.7,15z"/>
				<path fill="#676767" d="M310.4,15.2c0.4,0.5,0.3,1.5,0.3,2.3c0,0.9,0.1,2-0.5,2.3c-0.4,0.2-1.1,0.2-1.5,0
					c-0.4-0.4-0.4-1.5-0.4-2.4c0-1.3-0.1-2.5,1.1-2.6C309.8,14.9,310.2,15,310.4,15.2z M310.1,18.8c0-0.5,0-1.1,0-1.7
					c0-0.4,0.1-1.3-0.2-1.5c-0.1-0.1-0.4-0.1-0.5-0.1c-0.3,0.1-0.4,0.4-0.5,0.7c0,0.4,0,1.1,0,1.7c0,0.5,0,1.3,0.2,1.5
					c0.1,0.1,0.4,0.1,0.6,0.1C310,19.4,310.1,19.1,310.1,18.8z"/>
				<path fill="#676767" d="M307.2,129c0.9,0.7,1.6,2.1,1.2,3.8c-0.3,1.4-1.1,2.4-2.3,2.9c-1.4,0.5-3-0.2-4.4-0.3
					c0.5-2.5,1-4.9,1.4-7.4c0,0,0,0,0-0.1C304.6,128.2,306.2,128.2,307.2,129z M307.6,133.1c0.4-1.3,0.2-2.6-0.6-3.4
					c-0.7-0.7-2-0.8-3.1-1c-0.4,2-0.8,4-1.2,6.1c0.9,0.1,1.7,0.4,2.6,0.4C306.4,135,307.2,134.1,307.6,133.1z"/>
				<path fill="#676767" d="M307.7,15c0,1.7,0,3.4,0,5.1c-0.3,0-0.6,0-0.9,0c-0.3-1.4-0.7-2.8-1-4.3c0,1.4,0,2.9,0,4.3
					c-0.2,0-0.3,0-0.5,0c0-1.7,0-3.3,0-5c0,0,0,0,0-0.1c0.3,0,0.6,0,0.9,0c0.3,1.5,0.7,2.9,1,4.3c0-1.4,0-2.9,0-4.3
					C307.3,15,307.5,15,307.7,15z"/>
				<path fill="#676767" d="M305.3,43.5c0.1,0.9,0.1,1.8,0.2,2.7c-0.4,0.1-0.8,0-1.2,0c-0.3,0.6-0.5,1.3-0.8,2c-0.2,0-0.4,0-0.5,0
					c-0.2-1.2-0.5-2.3-0.7-3.5c-2.4-0.3-4.9-0.6-7.3-0.9c-0.1,0.6-0.2,1.3-0.3,2c-0.1,0.7-0.2,1.3-0.3,2c0,0.1-0.2,0.3-0.1,0.4
					c0.1,0.1,0.9,0.2,1,0.2c0.8,0.1,1.4,0.2,2.2,0.3c0.4,0.1,0.8,0.1,1.1,0.2c0.4,0.1,0.8,0.5,1,0.9c0.1,0.1,0.2,0.3,0.2,0.4
					c0,0.2,0,0.5,0,0.8c0,1.9,0,4,0,5.8c0,1.3,0,2.1,0.5,2.8c0.2,0.3,0.5,0.6,1,0.7c0.4,0.1,0.9,0.2,1.4,0.3
					c0.1,0.2,0.2,0.5,0.3,0.8c0.1,0.3,0.1,0.7-0.1,0.8c-0.2,0.1-0.9,0-1.2,0c-1.3,0-2.8,0-4,0c-0.2-0.4-0.2-0.9,0-1.2
					c0.1-0.1,0.1-0.2,0.2-0.3c0.1-0.4,0.1-0.9,0.1-1.3c0-0.2,0-0.4-0.1-0.6s0-0.4-0.1-0.6c-0.1-0.2-0.2-0.4-0.3-0.5
					c-0.7-1.2-1.6-2.8-1.1-4.8c-1.7,0.4-3.3,0.8-4.9,1.2c-0.4,1.1-0.7,2.2-1,3.2c0.5-0.1,1.1,0.2,1.6,0.3c0.4,0.2,0.8,0.3,1.2,0.4
					c0.6,0.2,1.5,0.1,2.3,0.1c0.3,0,0.6-0.1,0.7,0c0.1,0,0.1,0.1,0.1,0.2c0,0.1,0.1,0.2,0.1,0.2c0.1,0.3,0,0.6,0.1,0.9
					c0,0.2,0.2,0.5,0.3,0.7c0.3,0.7,0.6,1.5,0.5,2.4c-0.1,0.7-0.3,1.2-0.8,1.6c-0.1,0.1-0.3,0.3-0.5,0.3c-0.5,0.1-0.9-0.1-1.3,0.1
					c-0.1,0.3-0.2,0.7-0.2,1c-0.4,0-0.7,0-1.1,0c-0.4,0-0.8-0.1-1.1,0c-0.2,0-0.6,0.5-0.7,0.6c-0.2,0.2-0.4,0.4-0.7,0.6
					c-0.5-0.4-0.9-0.8-1.3-1.2c-0.6,0.1-1.3,0.2-2,0.3c0-0.7,0-1.4,0-2.1c-0.3-0.2-0.7-0.3-1.1-0.5c-0.1-0.1-0.1-0.2-0.2-0.3
					c0.2-0.4,0.4-0.7,0.5-1.1c-0.3,0-0.5,0-0.8,0c-0.9-1.2-1.6-2.4-2.5-3.6c0.1-0.2,0.3-0.4,0.5-0.6c0.2-0.2,0.4-0.4,0.5-0.5
					c-0.2-0.5-0.3-1-0.4-1.5c0.5-0.4,1-0.7,1.5-1c0.1-1.8,0.3-3.7,0.5-5.5c0-0.3,0.1-0.6,0.1-0.8c0-0.1-0.2-0.3-0.3-0.5
					c-0.3-0.5-0.5-1-0.5-1.7c-0.1-1.1,0.1-2.5,0.3-3.5c0.1-0.3,0.2-0.7,0.3-0.9c0.1-0.2,0.3-0.3,0.5-0.5c0.2-0.1,0.4-0.3,0.6-0.3
					c-0.1-0.4,0-0.8-0.2-1c-0.2-0.2-0.6-0.2-0.9-0.3c-0.2-0.1-0.4-0.4-0.4-0.6c0-0.2,0.4-0.6,0.5-0.8c0.2-0.3,0.4-0.5,0.5-0.7
					c0-0.5,0.1-0.9,0-1.4c0,0,0,0,0,0c-0.2-0.9-0.3-1.8,0-2.6c-1.3,0.4-2.2-0.3-2.7-1c-0.6,0.3-1.3,0.5-1.9,0.2
					c-0.4-0.2-0.7-0.5-1-0.8c-0.1-0.1-0.2-0.2-0.3-0.3c-0.1-0.1-0.3-0.1-0.4-0.2c-0.7-0.4-1.6-0.8-2.2-1.4c-0.1-0.1-0.2-0.2-0.3-0.3
					c-0.1-0.1-0.4-0.1-0.6-0.2c-0.5-0.1-0.7-0.2-1.3-0.3c-0.2,0-0.5,0-0.6-0.2c-0.1-0.1,0-0.4,0-0.5c1.8-0.5,4.2-0.2,5.7,0.3
					c0.3-0.9,0.7-1.6,1.6-1.8c1-0.2,2,0.2,2.6,0.6c1,0.6,2,1.4,2.7,2.4c0.2,0.3,0.5,0.7,0.6,1.1c0.5-0.3,1.1-0.6,1.6-0.9
					c0.2-0.1,0.5-0.2,0.6-0.3c0.2-0.1,0.3-0.6,0.4-0.8c0.5-0.8,1-1.5,1.6-2.1c0.8-0.8,1.8-1.5,3.3-1.6c3.2-0.3,3.8,3.5,2.9,6.3
					c2.6,0.5,4.3,1.8,5.3,4c0.5,1.1,0.7,2.6,0.4,4c-0.3,1.2-0.9,2.2-1.8,2.9C303.5,43,304.4,43.2,305.3,43.5z M305.2,45.5
					c0-0.1-0.1-0.3-0.1-0.4c-0.1-0.5-0.2-0.9-0.2-1.3c-3.2-0.9-6.4-1.8-9.5-2.7c-0.3,0.5-0.8,1.1-1.2,1.6c-0.2,0.3-0.4,0.6-0.9,0.6
					c-0.3,0.3-0.2,0.9-0.4,1.3c0.6,0,1.1,0,1.7,0c0.1-0.4,0.2-1.2,0.5-1.3c0.1,0,0.3,0,0.5,0.1c2.4,0.3,4.9,0.6,7.2,1
					c0.2,1,0.4,2,0.7,2.9c0.2-0.6,0.4-1.2,0.7-1.8c0.2,0,0.6,0.2,0.8,0.2C305.1,45.7,305.2,45.6,305.2,45.5z M304.2,39.4
					c0.3-1.6-0.1-3.1-0.8-4.1c-1.2-2-3.6-3.5-6.9-3.3c-0.4,0-0.8,0.1-1.2,0.2c0,0.3-0.1,0.5-0.1,0.7c2.7,0.3,5,1.1,6.3,2.7
					c0.7,0.8,1.2,2,1,3.4c-0.2,1.4-0.8,2.3-1.3,3.2c0.3,0.1,0.7,0.2,1,0.3C303.1,41.7,303.9,40.7,304.2,39.4z M301.8,61.7
					c0.4,0,0.9,0.1,0.9-0.3c0-0.3-0.4-0.3-0.8-0.3c-0.9,0-1.5,0-2.3,0c-0.4,0-0.9-0.1-1.2,0c-0.2,0-0.2,0.2-0.2,0.4
					c0.1,0.3,0.6,0.2,1,0.2C300.2,61.7,300.8,61.7,301.8,61.7z M300.8,60.8c-0.4-0.6-0.9-1-1.1-1.8c-0.2-0.8-0.2-1.7-0.2-2.8
					c0-1.4,0-2.9,0-4.4c0-0.5,0.1-1.1,0-1.4c-0.1-0.5-0.6-0.8-1-1c-0.9-0.1-1.8-0.2-2.7-0.3c-0.3,0.3-0.6,0.7-0.9,1.1
					c-0.1,0.1-0.2,0.3-0.3,0.3c-0.1,0-0.3,0-0.5,0.1c-0.3,0-0.6,0.1-1,0.1c-0.3,0.4-0.5,0.9-0.8,1.3c-0.7,0-1.5,0-2.2,0
					c-0.2,0.4-0.4,0.9-0.6,1.3c-0.4-0.1-0.7-0.2-1.1-0.3c-0.1,0.2-0.2,0.5-0.3,0.7c-0.5,0.3-1,0.6-1.5,1c-0.1,0.1-0.4,0.2-0.5,0.3
					c0,0.1,0,0.2,0,0.4c-0.1,0.9-0.1,1.9-0.2,2.7c-0.1,0.9-0.3,2.4,0.4,2.8c0.3,0.2,0.7,0.1,1.1,0c0.7-0.1,1.4-0.2,2.1-0.3
					c1.7-0.2,4.2-0.7,5.5,0.2c0.3,0.2,0.6,0.5,0.8,0.8c0.2,0.2,0.5,0.9,0.7,0.9c0.1,0,0.2-0.2,0.3-0.4c0.1-0.3-0.1-0.6-0.2-0.7
					c-0.7-0.9-2.6-0.9-2.5-2.6c-1.5-0.1-2.3-0.8-3.7-1c-0.2,0-0.4,0-0.5-0.1c-0.1-0.4,0.1-0.7,0.2-1c0.3-1,0.6-2,0.9-2.9
					c1.7-0.4,3.4-0.8,5-1.2c0.2-0.1,0.5-0.2,0.7-0.1c0.2,0,0.3,0.3,0.3,0.5c0,0.1-0.1,0.2-0.1,0.3c0,0.1-0.1,0.2-0.1,0.3
					c-0.4,1.6,0.3,2.9,0.9,3.9c0.1,0.2,0.3,0.3,0.3,0.5c0.1,0.4,0.1,0.9,0.2,1.4c0,0.5,0.1,1,0,1.5C299.2,60.8,300,60.8,300.8,60.8z
					 M299,41.5c0.4-0.7,0.8-1.5,0.8-2.6c0-1.5-0.7-2.6-1.6-3.3c-0.9-0.8-2.1-1.2-3.5-1.4c-0.2,0.2-0.3,0.6-0.5,0.9
					c1.2,0.4,2.2,1,2.8,1.9c0.6,0.9,0.9,2.5,0.6,4C298,41.2,298.5,41.4,299,41.5z M296.3,60.2c0-0.2-0.2-0.3-0.3-0.6
					c-0.1-0.3,0-0.6-0.1-0.8c-0.1-0.3-0.8-0.4-1-0.2C294.7,59.7,295.5,60,296.3,60.2z M295.9,31.5c0.2-1,0.1-2.4-1-2.4
					c-0.7,0-1.1,0.6-1.3,1.1c0.7,0.2,1.3,0.5,1.4,1.3C295.3,31.5,295.6,31.5,295.9,31.5z M294.9,40.3c0-1.6-0.5-2.7-1.4-3.3
					c-0.2,0.2-0.3,0.3-0.4,0.5c0.4,0.6,0.6,1.4,0.7,2.4C294.1,40,294.5,40.2,294.9,40.3z M293.7,33c0.6,0.1,0.9-0.4,0.9-1
					c-0.1-0.7-0.7-1.1-1.2-1.3c0,0,0,0,0,0c-0.1,0.2-0.2,0.3-0.3,0.5c0.2,0.1,0.5,0.3,0.7,0.5c0.2,0.2,0.4,0.4,0.3,0.7
					c-0.6,0-0.9-0.4-1.3-0.6c-0.1,0.2-0.1,0.3-0.2,0.4C292.8,32.5,293.1,32.9,293.7,33z M294.2,45.5c-0.5,0-1,0-1.6,0
					c-0.2,0.4-0.4,0.8-0.5,1.3c0.5,0,1.1,0,1.6,0.1C294,46.5,294.2,46,294.2,45.5z M293.4,42.4c0.5-0.4,1-0.8,1.3-1.5
					c-0.4-0.4-1-0.6-1.7-0.6c-0.2,0.2-0.5,0.3-0.6,0.6c-0.1,0.2-0.2,0.4-0.2,0.6c-0.1,0.2-0.2,0.4-0.3,0.5c-0.5,0.9-1,1.7-1.5,2.6
					c-0.1,0.2-0.3,0.5-0.4,0.4c-0.2-0.1-0.1-0.7-0.1-0.9c0-1-0.7-1.7-1.5-1.9c-0.2,0-0.5,0-0.6-0.1c-0.4-0.2-0.6-0.5-1-0.6
					c-0.5,0.7-0.8,1.7-0.8,3c0.4,0.1,1.1-0.1,1.3,0.1c0.1,0.1,0.2,0.4,0.2,0.5c0.4,0.9,0.9,1.7,1.6,2.3c0.3,0.2,0.6,0.5,0.9,0.6
					c0.1,0,0.2,0.1,0.3,0.1c0.9,0.1,1-0.6,1.3-1.2c0.3-0.9,0.5-1.8,0.7-2.7C292.6,43.4,292.7,42.6,293.4,42.4z M293.5,48.5
					c0.1-0.1,0.3-0.2,0.3-0.4c-0.6,0-1.3,0-1.9,0c-0.1,0-0.1,0.2-0.2,0.2c-0.1,0.1-0.2,0.2-0.1,0.2
					C292.2,48.5,292.9,48.5,293.5,48.5z M291.4,34.8c0.7,0.4,2.1,0.4,1.9-0.7c-0.1-0.6-0.7-1-1.3-1.1c-0.1,0.2-0.1,0.4-0.2,0.5
					c0.2,0.1,0.4,0.2,0.6,0.3c0.1,0.1,0.5,0.3,0.4,0.5c-0.1,0.2-0.5,0.1-0.7,0c-0.2-0.1-0.4-0.2-0.6-0.2
					C291.5,34.3,291.4,34.5,291.4,34.8z M292.2,40.2c0.2-0.3,0.6-0.4,1.1-0.4c0-0.9-0.3-1.6-0.7-2.2c-0.7,0-1.3-0.1-1.7-0.4
					c0,0,0,0,0,0C290.8,38.7,291.4,39.5,292.2,40.2z M292.9,36.4c0-0.7-0.6-1.1-1.5-1c0,0,0,0-0.1,0c-0.1,0.2-0.1,0.3-0.2,0.5
					c0.4,0,0.7,0.1,1,0.3c0.2,0.1,0.4,0.5,0,0.5c-0.4,0.1-0.8-0.2-1.1-0.2c0,0.2-0.1,0.4-0.1,0.5C291.7,37.5,292.9,37.4,292.9,36.4z
					 M290.4,43.3c0.7-0.7,1.2-1.6,1.4-2.7c-1.1-0.6-1.9-2.2-1.3-3.9c-0.3-0.1-0.6-0.3-0.9-0.4c-0.3-0.1-0.7-0.3-1-0.3
					c-0.2,0-0.5,0.1-0.8,0.1c-0.3,0-0.5,0-0.9,0c0,0.5,0,1,0.1,1.5c-0.2,0.3-0.5,0.8-0.8,1.1c-0.1,0.1-0.2,0.3-0.2,0.4
					c0,0.3,0.8,0.3,1.2,0.4c0,0.3,0.1,0.6,0.2,0.9c0.1,0.3,0.1,0.6,0.2,0.8c0,0.1,0.3,0.4,0.4,0.5c0.4,0.3,1.1,0.2,1.7,0.1
					c0,0.2,0,0.4,0,0.6C290.1,42.6,290.3,42.9,290.4,43.3z M289.5,48.5c-0.1-0.1-0.2-0.2-0.3-0.2c-0.1-0.1-0.2-0.2-0.3-0.2
					c-0.3-0.1-0.7,0-1,0c-0.4,0-0.7,0-1,0c-0.1,0.1-0.1,0.2-0.1,0.3c0.1,0.2,0.4,0.2,0.6,0.2C288,48.5,288.9,48.6,289.5,48.5z
					 M287.9,31.5c0,0,0.1,0.1,0.2,0.1c-0.3-1.1-1-1.9-1.8-2.6c-0.8-0.7-1.7-1.3-3-1.4c-0.5,0-0.9,0.3-1.2,0.5
					c-0.3,0.3-0.5,0.7-0.5,1.2c0,1,0.9,1.8,1.9,1.7c0.8-0.1,1.2-0.6,1.7-1.1C286.4,30.1,287.1,30.9,287.9,31.5z M286.2,47
					c0.5,0,1.1,0,1.6,0c-0.3-0.5-0.6-1-0.8-1.6c-0.3,0-0.7,0-1,0c0,0,0,0,0,0.1C286,46,285.9,46.7,286.2,47z M285.3,31
					c0.5,0.5,1.5,1,2.3,0.7c-0.7-0.6-1.4-1.2-2.4-1.5C284.8,30.4,285.1,30.7,285.3,31z"/>
				<path fill="#676767" d="M304.5,16.9c0,1.1,0.2,2.7-0.5,3.1c-0.4,0.2-1.2,0.2-1.5-0.1c-0.3-0.4-0.3-1.4-0.3-2.2
					c0-1.4-0.1-2.6,1.1-2.7c0.2,0,0.6,0.1,0.8,0.2C304.5,15.5,304.5,16.2,304.5,16.9z M304,18.6c0-0.7,0-1.4,0-2.1
					c0-0.6-0.1-1.1-0.7-0.9c-0.4,0.1-0.5,0.5-0.5,0.9c0,0.3,0,0.7,0,1.1c0,0.6-0.1,1.6,0.2,1.9c0.2,0.2,0.6,0.1,0.7,0
					C303.9,19.3,304,18.9,304,18.6z"/>
				<path fill="#676767" d="M301.7,15c0,0.2,0,0.4,0,0.6c-0.3,0-0.6,0-0.9,0c0,1.5,0,3,0,4.5c-0.2,0-0.4,0-0.5,0c0-1.5,0-3,0-4.5
					c-0.3,0-0.6,0-0.9,0c0-0.2,0-0.4,0-0.6C300.1,15,300.9,15,301.7,15z"/>
				<path fill="#676767" d="M298.6,126c1.1,0.5,2.2,1,2.2,2.5c0,0.7-0.3,1.4-0.7,1.8c-0.4,0.4-1.3,0.8-2.1,0.5
					c0.2,1.2,0.3,2.3,0.5,3.5c-0.3-0.1-0.5-0.2-0.8-0.4c-0.2-1.4-0.4-2.8-0.5-4.2c0.4,0.1,0.8,0.4,1.3,0.5c1,0.1,1.7-0.7,1.7-1.8
					c-0.1-1.3-1.6-1.5-2.5-2c-0.9,2.1-1.9,4.2-2.8,6.3c-0.2-0.1-0.4-0.2-0.7-0.3c1-2.3,2-4.7,3.1-7
					C297.6,125.6,298.1,125.8,298.6,126z"/>
				<path fill="#676767" d="M298.7,17.4c0,1,0.1,2.2-0.5,2.5c-0.4,0.2-1.1,0.2-1.4-0.1c-0.4-0.4-0.3-1.4-0.3-2.2c0-0.9,0-1.7,0-2.6
					c0,0,0,0,0-0.1c0.2,0,0.4,0,0.5,0c0,0.8,0,1.6,0,2.5c0,0.8-0.2,2.3,0.8,2.1c0.5-0.2,0.4-1.3,0.4-2.1c0-0.9,0-1.6,0-2.5
					c0.2,0,0.4,0,0.5,0C298.7,15.7,298.7,16.6,298.7,17.4z"/>
				<path fill="#676767" d="M295.8,20c-0.2,0-0.4,0-0.6,0c0-0.4-0.1-0.7-0.2-1.1c-0.3,0-0.7,0-1.1,0c-0.1,0.4-0.1,0.8-0.2,1.2
					c-0.2,0-0.4,0-0.5,0c0.3-1.7,0.6-3.4,0.9-5.1c0.2,0,0.5,0,0.7,0C295.2,16.7,295.5,18.4,295.8,20z M294,18.3c0.3,0,0.6,0,0.9,0
					c-0.1-0.9-0.3-1.8-0.5-2.7C294.3,16.5,294.2,17.4,294,18.3z"/>
				<path fill="#676767" d="M294.6,124.5c-0.1,0.2-0.3,0.4-0.4,0.6c-0.9-0.5-1.8-1.1-2.7-1.7c-0.5,0.7-0.9,1.5-1.4,2.3
					c0.9,0.6,1.8,1.1,2.7,1.7c-0.1,0.2-0.3,0.4-0.4,0.6c-0.9-0.5-1.8-1.1-2.7-1.7c-0.5,0.7-0.9,1.5-1.4,2.3c0.9,0.6,1.8,1.1,2.7,1.7
					c-0.1,0.2-0.2,0.4-0.4,0.6c-1.1-0.7-2.2-1.4-3.3-2.1c1.3-2.2,2.7-4.3,4-6.4C292.4,123.1,293.5,123.8,294.6,124.5z"/>
				<path fill="#676767" d="M291.3,16.2c0.1,0.6,0,1.4,0,2.1c0,0.8-0.1,1.4-0.5,1.6c-0.5,0.2-1.2,0-1.8,0.1c0-1.7,0-3.3,0-5
					c0,0,0,0,0-0.1c0.9,0,1.7-0.1,2,0.4C291.2,15.6,291.3,15.9,291.3,16.2z M290.8,17.5c0-0.6,0.1-1.6-0.2-1.8
					c-0.2-0.2-0.6-0.2-1-0.2c0,0,0,0,0,0.1c0,1.3,0,2.6,0,3.9c0.3,0,0.8,0,1-0.1C290.9,19.1,290.8,18.2,290.8,17.5z"/>
				<path fill="#676767" d="M288.4,20c-0.2,0-0.4,0-0.6,0c-0.1-0.4-0.1-0.7-0.2-1.1c-0.3,0-0.7,0-1.1,0c-0.1,0.4-0.1,0.8-0.2,1.2
					c-0.2,0-0.3,0-0.5,0c0.3-1.7,0.6-3.4,0.9-5.1c0.2,0,0.5,0,0.7,0C287.8,16.7,288.1,18.4,288.4,20z M286.7,18.3c0.3,0,0.6,0,0.9,0
					c-0.1-0.9-0.3-1.8-0.5-2.7C287,16.5,286.8,17.4,286.7,18.3z"/>
				<path fill="#676767" d="M288.3,121c0.2,0.1,0.4,0.3,0.6,0.4c-2.2,1.6-4.4,3.1-6.6,4.7c-0.2-0.1-0.3-0.2-0.5-0.3
					c0.6-2.6,1.3-5.2,1.9-7.9c0.2,0.1,0.4,0.3,0.6,0.4c-0.5,2.2-1.1,4.5-1.6,6.7C284.5,123.8,286.4,122.4,288.3,121z"/>
				<path fill="#676767" d="M288.2,37.4c0.2,0.1,0.3,0.6,0,0.7c-0.2,0-0.4,0-0.4-0.4c0-0.1,0.1-0.3,0.2-0.3
					C288.1,37.4,288.1,37.4,288.2,37.4z"/>
				<path fill="#676767" d="M284.9,15.3c0.5,0.5,0.3,1.6,0.3,2.4c0,0.9,0.1,2-0.5,2.3c-0.5,0.2-1.2,0-1.8,0.1c0-1.7,0-3.3,0-5
					c0,0,0,0,0-0.1C283.8,15,284.5,14.9,284.9,15.3z M284.7,17.6c0-0.7,0.1-1.7-0.2-1.9c-0.2-0.2-0.6-0.1-0.9-0.1c0,0,0,0,0,0.1
					c0,1.3,0,2.6,0,3.9c0.3,0,0.7,0.1,0.9-0.1C284.8,19.2,284.7,18.3,284.7,17.6z"/>
				<path fill="#676767" d="M284.8,51.9c0.1,1.8-0.6,3.1-1.5,4.1c-0.9,0.9-2.2,1.7-3.8,1.8c-1.8,0.1-3.1-0.6-4.1-1.5
					c-1-0.9-1.7-2.1-1.8-3.8c-0.1-1.8,0.6-3.2,1.5-4.1c0.9-0.9,2.1-1.7,3.8-1.8c1.8-0.1,3.2,0.6,4.1,1.5
					C283.9,48.9,284.7,50.2,284.8,51.9z"/>
				<path fill="#676767" d="M282.2,15c0,1.7,0,3.4,0,5.1c-0.2,0-0.4,0-0.5,0c0-1.7,0-3.3,0-5c0,0,0,0,0-0.1
					C281.9,15,282,15,282.2,15z"/>
				<path fill="#676767" d="M279.9,14.9c0.9,0,1.1,0.5,1.1,1.5c-0.2,0-0.4,0-0.5,0c0.2-0.6-0.3-1.3-0.8-0.9
					c-0.2,0.2-0.3,0.6-0.2,0.9c0.1,0.3,0.4,0.5,0.8,0.7c0.3,0.2,0.6,0.4,0.7,0.7c0.3,0.6,0.2,1.6-0.3,2c-0.3,0.2-1,0.3-1.4,0.1
					c-0.4-0.2-0.5-0.8-0.5-1.6c0.2,0,0.4,0,0.5,0c0,0.5,0,0.9,0.2,1.1c0.3,0.2,0.7,0.1,0.8-0.1c0.2-0.2,0.2-0.7,0.1-1
					c-0.2-0.5-1.1-0.7-1.4-1.3c-0.4-0.6-0.2-1.7,0.3-2C279.5,15,279.7,14.9,279.9,14.9z"/>
				<path fill="#676767" d="M278.2,20c-0.2,0-0.4,0-0.6,0c-0.1-0.3-0.1-0.7-0.1-1.2c0-0.8-0.1-1.3-1.1-1.1c0,0.8,0,1.5,0,2.3
					c-0.2,0-0.4,0-0.5,0c0-1.7,0-3.4,0-5.1c0.8,0,1.7-0.2,2,0.4c0.4,0.6,0.3,2.1-0.6,2.1C278.5,17.5,277.9,19.2,278.2,20z M277.4,17
					c0.3-0.3,0.3-1.2,0-1.4c-0.2-0.2-0.5-0.1-0.9-0.1c0,0,0,0,0,0.1c0,0.5,0,1,0,1.6C276.9,17.2,277.2,17.3,277.4,17z"/>
				<path fill="#676767" d="M277.4,111.8c0.2,0.2,0.5,0.4,0.7,0.6c-0.8,2.6-1.6,5.2-2.5,7.7c-0.1,0-0.1-0.1-0.1-0.1
					c-0.2-0.1-0.3-0.3-0.5-0.4c0.3-0.8,0.5-1.6,0.8-2.4c-0.7-0.6-1.5-1.2-2.3-1.9c-0.1-0.1-0.3-0.3-0.3-0.3s-0.5,0.3-0.5,0.3
					c-0.5,0.3-1.1,0.7-1.6,1c-0.2-0.2-0.4-0.3-0.6-0.5C272.6,114.5,275,113.1,277.4,111.8z M276,116.5c0.4-1.2,0.9-2.6,1.3-3.8
					c-1.2,0.7-2.3,1.4-3.5,2.1c0.6,0.5,1.3,1.1,2,1.6C275.8,116.3,275.9,116.5,276,116.5z"/>
				<path fill="#676767" d="M275.3,19.5c0,0.2,0,0.4,0,0.5c-0.6,0-1.2,0-1.8,0c0-1.7,0-3.4,0-5.1c0.6,0,1.2,0,1.8,0
					c0,0.2,0,0.4,0,0.6c-0.4,0-0.8,0-1.2,0c0,0.5,0,1.1,0,1.6c0.4,0,0.8,0,1.2,0c0,0.2,0,0.4,0,0.5c-0.4,0-0.8,0-1.2,0
					c0,0.5,0,1.2,0,1.7C274.4,19.5,274.8,19.5,275.3,19.5z"/>
				<path fill="#676767" d="M274,106.5c0.2,0.2,0.2,0.4,0.4,0.6c-1.9,1.2-3.9,2.4-5.8,3.7c0.5,0.8,0.9,1.5,1.4,2.3
					c-0.2,0.2-0.4,0.3-0.6,0.4c-0.6-1-1.2-1.9-1.8-2.9C269.7,109.2,271.9,107.8,274,106.5z"/>
				<path fill="#676767" d="M272.3,15c0.2,0,0.4,0,0.5,0c-0.3,1.7-0.6,3.4-0.9,5.1c-0.2,0-0.5,0-0.7,0c-0.3-1.7-0.6-3.4-0.9-5.1
					c0.2,0,0.4,0,0.6,0c0.2,1.4,0.4,2.9,0.6,4.3C271.9,17.9,272.1,16.4,272.3,15z"/>
				<path fill="#676767" d="M271.6,100.9c0.1,0.2,0.2,0.5,0.2,0.7c-2.4,0.7-4.8,1.5-7.3,2.2c0-0.1-0.1-0.3-0.1-0.4
					c0-0.1-0.1-0.3-0.1-0.4c0-0.1,0.2-0.2,0.3-0.4c1.6-1.8,3.3-3.8,4.9-5.6c-2.1,0.7-4.2,1.4-6.4,2c0-0.2-0.2-0.4-0.2-0.7
					c2.4-0.7,4.8-1.5,7.2-2.2c0.1,0,0.1,0.2,0.2,0.4c0,0.1,0.2,0.3,0.2,0.4c0,0.1-0.2,0.3-0.3,0.4c-1.6,1.8-3.3,3.8-4.8,5.6
					C267.3,102.3,269.4,101.6,271.6,100.9z"/>
				<path fill="#676767" d="M270,15c0,1.7,0,3.4,0,5.1c-0.2,0-0.4,0-0.5,0c0-1.7,0-3.3,0-5c0,0,0,0,0-0.1C269.6,15,269.8,15,270,15z
					"/>
				<path fill="#676767" d="M269.8,79.5c0.1,1.3-0.4,2.2-1,2.9c-0.6,0.7-1.4,1.2-2.6,1.3c-1.2,0.1-2.3-0.3-3-0.9
					c-0.7-0.6-1.3-1.4-1.3-2.6c-0.1-1.3,0.4-2.3,0.9-2.9c0.6-0.6,1.5-1.2,2.6-1.3c1.3-0.1,2.3,0.3,3,0.9
					C269.1,77.5,269.7,78.4,269.8,79.5z M269,80.6c0.2-0.7,0.1-1.4-0.2-2.1c-0.5-1-1.6-1.9-3.1-1.8c-0.8,0.1-1.4,0.3-1.9,0.7
					c-0.6,0.5-1.1,1.2-1.2,2.1c-0.1,1.7,0.8,2.6,1.8,3.1C266.5,83.7,268.6,82.3,269,80.6z"/>
				<path fill="#676767" d="M268.6,66.8c0.7,0.7,1.2,1.6,1.2,3c-0.1,1.6-1,2.5-2.1,3.1c0.1-0.3-0.1-0.6,0-0.8c0-0.1,0.2-0.2,0.3-0.2
					c0.6-0.5,1.2-1.3,1.1-2.6c-0.1-0.9-0.5-1.5-1-2c-0.5-0.5-1.3-0.9-2.2-0.9c-0.9,0-1.6,0.3-2.2,0.8c-0.6,0.5-1.1,1.3-1,2.6
					c0.1,0.9,0.5,1.6,1.1,2.1c0.1,0.1,0.2,0.1,0.2,0.2c0.1,0.2-0.1,0.5,0,0.8c-0.1,0-0.2-0.1-0.2-0.1c-1.2-0.7-2.1-2.2-1.7-4.1
					c0.3-1.6,1.7-2.9,3.5-3C266.9,65.5,267.8,66.1,268.6,66.8z"/>
				<path fill="#676767" d="M269.7,48.3c0,1.7,0.1,3.4-0.5,4.4c-0.6,0.9-1.7,1.7-3.3,1.7c-1.6,0-2.6-0.7-3.3-1.7
					c-0.3-0.5-0.5-1.2-0.5-2c0-0.7,0-1.6,0-2.4c0,0,0,0,0-0.1C264.6,48.3,267.1,48.3,269.7,48.3z M268.5,52.3c0.6-0.8,0.5-2,0.5-3.4
					c-2,0-4.1,0-6.1,0c0,0,0,0,0,0.1c0,1.4-0.1,2.6,0.5,3.3c0.5,0.8,1.4,1.2,2.6,1.2C267.1,53.6,268,53.1,268.5,52.3z"/>
				<path fill="#676767" d="M269.6,40.7c0,1.3,0,2.6,0,3.9c-0.2,0-0.5,0-0.7,0c0-1.1,0-2.1,0-3.2c-0.9,0-1.8,0-2.7,0
					c0,1,0,2.1,0,3.2c-0.2,0-0.5,0-0.7,0c0-1.1,0-2.1,0-3.2c-0.9,0-1.8,0-2.7,0c0,1.1,0,2.1,0,3.2c-0.2,0-0.5,0-0.7,0
					c0-1.3,0-2.6,0-3.9C264.5,40.7,267.1,40.7,269.6,40.7z"/>
				<path fill="#676767" d="M269.5,89.9c0.2,1.3,0.3,2.6,0.4,3.9c-0.3,0-0.5,0.1-0.7,0.1c-0.1-1.1-0.2-2.1-0.3-3.2
					c-0.9,0.1-1.8,0.2-2.7,0.3c0.1,1,0.2,2.1,0.3,3.2c-0.2,0-0.5,0.1-0.7,0.1c-0.1-1-0.2-2.1-0.3-3.2c-0.9,0.1-1.8,0.2-2.7,0.3
					c0.1,1.1,0.2,2.1,0.3,3.2c-0.2,0-0.5,0.1-0.7,0.1c-0.1-1.3-0.3-2.6-0.4-3.9C264.4,90.4,267,90.2,269.5,89.9z"/>
				<path fill="#676767" d="M269.6,61.7c0,0.2,0,0.5,0,0.7c-1.4,0-2.9,0-4.3,0c-1.5,0-2.7-0.2-3.2-1.1c-0.4-0.8-0.3-2.2,0.2-2.8
					c0.4-0.6,1.2-0.9,2.2-0.9c1.7-0.1,3.4,0.1,5.2,0c0,0.2,0,0.5,0,0.8c-1.2,0-2.7,0-4.1,0c-0.7,0-1.4-0.1-1.9,0.1
					c-0.8,0.3-1.5,1.3-0.9,2.3c0.5,1,2,0.9,3.5,0.9C267.3,61.7,268.5,61.7,269.6,61.7z"/>
				<path fill="#676767" d="M268.7,15c0,1.7,0,3.4,0,5.1c-0.3,0-0.6,0-0.9,0c-0.3-1.4-0.7-2.9-1-4.3c0,1.4,0,2.9,0,4.3
					c-0.2,0-0.3,0-0.5,0c0-1.7,0-3.3,0-5c0,0,0,0,0-0.1c0.3,0,0.6,0,0.9,0c0.3,1.5,0.7,2.9,1,4.3c0-1.4,0-2.9,0-4.3
					C268.3,15,268.5,15,268.7,15z"/>
				<path fill="#676767" d="M265.5,15c-0.1,1.2,0.1,2.8,0,4c0,0.5-0.3,0.9-0.7,1c-0.5,0.2-1.2,0-1.4-0.4c-0.3-0.5-0.2-1.4-0.2-2.2
					c0-0.9,0-1.7,0-2.4c0,0,0,0,0-0.1c0.2,0,0.4,0,0.5,0c0,1.1,0,2.4,0,3.7c0,0.5,0.2,1.1,0.8,0.9c0.5-0.2,0.4-1.4,0.4-2.1
					c0-0.9,0-1.6,0-2.4C265.2,15,265.3,15,265.5,15z"/>
			</g>
		</g>
	</g>
</g>
</svg>
