<?xml version="1.0" encoding="utf-8"?>
<!-- Generator: Adobe Illustrator 17.1.0, SVG Export Plug-In . SVG Version: 6.00 Build 0)  -->
<!DOCTYPE svg PUBLIC "-//W3C//DTD SVG 1.1//EN" "http://www.w3.org/Graphics/SVG/1.1/DTD/svg11.dtd">
<svg version="1.1" id="Layer_1" xmlns="http://www.w3.org/2000/svg" xmlns:xlink="http://www.w3.org/1999/xlink" x="0px" y="0px"
	 viewBox="0 0 72.8 72.8" enable-background="new 0 0 72.8 72.8" xml:space="preserve">
<path fill="#FFFFFF" d="M36.4,0C16.3,0,0,16.3,0,36.4c0,20.1,16.3,36.4,36.4,36.4c20.1,0,36.4-16.3,36.4-36.4
	C72.8,16.3,56.5,0,36.4,0z M46,36.2h-6.3c0,10.1,0,22.5,0,22.5h-9.3c0,0,0-12.3,0-22.5h-4.4v-7.9h4.4v-5.1c0-3.7,1.7-9.4,9.4-9.4
	l6.9,0v7.7c0,0-4.2,0-5,0c-0.8,0-2,0.4-2,2.2v4.7h7.1L46,36.2z"/>
</svg>
