<?xml version="1.0" encoding="utf-8"?>
<!-- Generator: Adobe Illustrator 19.0.0, SVG Export Plug-In . SVG Version: 6.00 Build 0)  -->
<svg version="1.2" baseProfile="tiny" id="Layer_1" xmlns="http://www.w3.org/2000/svg" xmlns:xlink="http://www.w3.org/1999/xlink"
	 x="0px" y="0px" viewBox="-296 386.7 18.5 20.3" xml:space="preserve">
<g>
	<g>
		<path fill="#FFFFFF" stroke="#FFFFFF" stroke-width="0.7013" d="M-278.7,388.8h-1.3V388c0-0.5-0.4-0.9-0.9-0.9h-1.2
			c-0.5,0-0.9,0.4-0.9,0.9v0.8h-7.3V388c0-0.5-0.4-0.9-0.9-0.9h-1.3c-0.5,0-0.9,0.4-0.9,0.9v0.8h-1.3c-0.5,0-0.9,0.4-0.9,0.9v16.1
			c0,0.5,0.4,0.9,0.9,0.9h16c0.5,0,0.9-0.4,0.9-0.9v-16.1C-277.8,389.2-278.2,388.8-278.7,388.8z"/>
		<path fill="none" stroke="#FFFFFF" stroke-miterlimit="10" d="M-278.5,404.5c0,0.5-0.4,0.9-0.9,0.9H-294c-0.5,0-0.9-0.4-0.9-0.9
			V394c0-0.5,0.4-0.9,0.9-0.9h14.6c0.5,0,0.9,0.4,0.9,0.9V404.5z"/>
		<path fill="#999999" stroke="#FFFFFF" stroke-miterlimit="10" d="M-279.7,404c0,0.4-0.4,0.8-0.8,0.8h-12.4c-0.4,0-0.8-0.4-0.8-0.8
			v-8.9c0-0.4,0.4-0.8,0.8-0.8h12.4c0.4,0,0.8,0.4,0.8,0.8V404z"/>
	</g>
</g>
</svg>
