<?xml version="1.0" encoding="utf-8"?>
<!-- Generator: Adobe Illustrator 17.1.0, SVG Export Plug-In . SVG Version: 6.00 Build 0)  -->
<!DOCTYPE svg PUBLIC "-//W3C//DTD SVG 1.1//EN" "http://www.w3.org/Graphics/SVG/1.1/DTD/svg11.dtd">
<svg version="1.1" id="Layer_1" xmlns="http://www.w3.org/2000/svg" xmlns:xlink="http://www.w3.org/1999/xlink" x="0px" y="0px"
	 viewBox="0 0 20.2 21" enable-background="new 0 0 20.2 21" xml:space="preserve">
<g>
	<circle fill="#FFFFFF" stroke="#FFFFFF" stroke-miterlimit="10" cx="3.3" cy="17.7" r="2.8"/>
	<path fill="#FFFFFF" stroke="#FFFFFF" stroke-miterlimit="10" d="M1.1,6.6c-0.1,0-0.1,0-0.2,0v3.5c0.1,0,0.1,0,0.2,0c5,0,9,4,9,9
		c0,0.5,0,0.9-0.1,1.4h3.5c0.1-0.5,0.1-0.9,0.1-1.4C13.6,12.2,8,6.6,1.1,6.6z"/>
	<path fill="#FFFFFF" stroke="#FFFFFF" stroke-miterlimit="10" d="M1.1,0.5c-0.1,0-0.1,0-0.2,0v3.3c0.1,0,0.1,0,0.2,0
		c8.5,0,15.3,6.9,15.3,15.3c0,0.5,0,0.9-0.1,1.4h3.3c0-0.5,0.1-0.9,0.1-1.4C19.7,8.8,11.4,0.5,1.1,0.5z"/>
</g>
</svg>
