<?xml version="1.0" encoding="utf-8"?>
<!-- Generator: Adobe Illustrator 17.1.0, SVG Export Plug-In . SVG Version: 6.00 Build 0)  -->
<!DOCTYPE svg PUBLIC "-//W3C//DTD SVG 1.1//EN" "http://www.w3.org/Graphics/SVG/1.1/DTD/svg11.dtd">
<svg version="1.1" id="Layer_1" xmlns="http://www.w3.org/2000/svg" xmlns:xlink="http://www.w3.org/1999/xlink" x="0px" y="0px"
	 viewBox="0 0 26 17.8" enable-background="new 0 0 26 17.8" xml:space="preserve">
<path fill="#FFFFFF" stroke="#FFFFFF" stroke-miterlimit="10" d="M25.1,15.7L14.2,9.6c0.4-1,0.6-2.2,0.5-3.3c-0.5-3.6-4-6.2-7.9-5.7
	C2.8,1.1,0.1,4.5,0.6,8.1s4,6.2,7.9,5.7c2-0.3,3.6-1.3,4.7-2.6l10.9,6.1c0.5,0.3,1,0.1,1.3-0.3C25.7,16.5,25.5,15.9,25.1,15.7z
	 M8.2,11.9c-2.8,0.4-5.4-1.5-5.7-4.1C2.2,5.2,4.1,2.8,7,2.4c2.8-0.4,5.4,1.5,5.7,4.1c0.1,0.9-0.1,1.9-0.5,2.7
	C12.1,9.2,12,9.3,12,9.4c-0.1,0.1-0.1,0.2-0.1,0.4C11.1,10.9,9.8,11.7,8.2,11.9z"/>
</svg>
