<?xml version="1.0" encoding="utf-8"?>
<!-- Generator: Adobe Illustrator 17.1.0, SVG Export Plug-In . SVG Version: 6.00 Build 0)  -->
<!DOCTYPE svg PUBLIC "-//W3C//DTD SVG 1.1//EN" "http://www.w3.org/Graphics/SVG/1.1/DTD/svg11.dtd">
<svg version="1.1" id="Layer_1" xmlns="http://www.w3.org/2000/svg" xmlns:xlink="http://www.w3.org/1999/xlink" x="0px" y="0px"
	 viewBox="0 0 48.3 48.5" enable-background="new 0 0 48.3 48.5" xml:space="preserve">
<path fill="#FFFFFF" d="M24.3,0C10.9,0,0,10.9,0,24.3c0,13.4,10.9,24.2,24.3,24.2c13.4,0,24.3-10.9,24.3-24.2
	C48.5,10.9,37.6,0,24.3,0z M36.5,19.4c0,0.3,0,0.5,0,0.8c0,8.1-6.1,17.4-17.4,17.4c-3.4,0-6.7-1-9.4-2.7c0.5,0.1,1,0.1,1.5,0.1
	c2.9,0,5.5-1,7.6-2.6c-2.7-0.1-4.9-1.8-5.7-4.2c0.4,0.1,0.8,0.1,1.2,0.1c0.6,0,1.1-0.1,1.6-0.2c-2.8-0.6-4.9-3-4.9-6
	c0,0,0-0.1,0-0.1c0.8,0.5,1.8,0.7,2.8,0.8c-1.6-1.1-2.7-3-2.7-5.1c0-1.1,0.3-2.2,0.8-3.1c3,3.7,7.5,6.1,12.6,6.4
	c-0.1-0.4-0.2-0.9-0.2-1.4c0-3.4,2.7-6.1,6.1-6.1c1.8,0,3.3,0.7,4.5,1.9c1.4-0.3,2.7-0.8,3.9-1.5c-0.5,1.4-1.4,2.6-2.7,3.4
	c1.2-0.1,2.4-0.5,3.5-1C38.7,17.4,37.7,18.5,36.5,19.4z"/>
</svg>
