<?xml version="1.0" encoding="utf-8"?>
<!-- Generator: Adobe Illustrator 17.1.0, SVG Export Plug-In . SVG Version: 6.00 Build 0)  -->
<!DOCTYPE svg PUBLIC "-//W3C//DTD SVG 1.1//EN" "http://www.w3.org/Graphics/SVG/1.1/DTD/svg11.dtd">
<svg version="1.1" id="Layer_1" xmlns="http://www.w3.org/2000/svg" xmlns:xlink="http://www.w3.org/1999/xlink" x="0px" y="0px"
	 viewBox="0 0 18.5 20.3" enable-background="new 0 0 18.5 20.3" xml:space="preserve">
<g>
	<g>
		<path fill="#FFFFFF" stroke="#FFFFFF" stroke-width="0.7013" d="M17.3,2.1H16V1.3c0-0.5-0.4-0.9-0.9-0.9h-1.2
			c-0.5,0-0.9,0.4-0.9,0.9v0.8H5.7V1.3c0-0.5-0.4-0.9-0.9-0.9H3.5C3,0.4,2.6,0.8,2.6,1.3v0.8H1.3C0.8,2.1,0.4,2.5,0.4,3v16.1
			c0,0.5,0.4,0.9,0.9,0.9h16c0.5,0,0.9-0.4,0.9-0.9V3C18.2,2.5,17.8,2.1,17.3,2.1z"/>
		<path fill="none" stroke="#FFFFFF" stroke-miterlimit="10" d="M17.5,17.8c0,0.5-0.4,0.9-0.9,0.9H2c-0.5,0-0.9-0.4-0.9-0.9V7.3
			c0-0.5,0.4-0.9,0.9-0.9h14.6c0.5,0,0.9,0.4,0.9,0.9V17.8z"/>
		<path fill="none" stroke="#FFFFFF" stroke-miterlimit="10" d="M16.3,17.3c0,0.4-0.4,0.8-0.8,0.8H3.1c-0.4,0-0.8-0.4-0.8-0.8V8.4
			c0-0.4,0.4-0.8,0.8-0.8h12.4c0.4,0,0.8,0.4,0.8,0.8V17.3z"/>
	</g>
</g>
</svg>
