<?xml version="1.0" encoding="utf-8"?>
<!-- Generator: Adobe Illustrator 17.1.0, SVG Export Plug-In . SVG Version: 6.00 Build 0)  -->
<!DOCTYPE svg PUBLIC "-//W3C//DTD SVG 1.1//EN" "http://www.w3.org/Graphics/SVG/1.1/DTD/svg11.dtd">
<svg version="1.1" id="Layer_1" xmlns="http://www.w3.org/2000/svg" xmlns:xlink="http://www.w3.org/1999/xlink" x="0px" y="0px"
	 viewBox="0 0 17.4 23.1" enable-background="new 0 0 17.4 23.1" xml:space="preserve">
<g>
	<g>
		<path fill="#FFFFFF" stroke="#FFFFFF" stroke-miterlimit="10" d="M8.7,11.6"/>
	</g>
	<g>
		<path fill="#FFFFFF" stroke="#FFFFFF" stroke-miterlimit="10" d="M11.1,15.8H5.5v-0.6c0-1,0.1-1.7,0.3-2.3c0.2-0.6,0.5-1.1,1-1.6
			c0.4-0.5,1.4-1.4,2.9-2.6c0.8-0.7,1.2-1.2,1.2-1.8c0-0.5-0.2-1-0.5-1.3c-0.3-0.3-0.8-0.5-1.5-0.5c-0.7,0-1.3,0.2-1.7,0.7
			C6.7,6.3,6.4,7.1,6.3,8.3L0.5,7.5c0.2-2.1,1-3.8,2.3-5.1C4.2,1.1,6.2,0.5,9,0.5c2.2,0,3.9,0.5,5.2,1.3c1.8,1.2,2.7,2.8,2.7,4.9
			c0,0.8-0.2,1.7-0.7,2.4c-0.5,0.8-1.4,1.7-2.8,2.9c-1,0.8-1.6,1.4-1.9,1.9C11.2,14.4,11.1,15,11.1,15.8z M5.3,17.3h6v5.3h-6V17.3z"
			/>
	</g>
</g>
</svg>
