<?xml version="1.0" encoding="utf-8"?>
<!-- Generator: Adobe Illustrator 17.1.0, SVG Export Plug-In . SVG Version: 6.00 Build 0)  -->
<!DOCTYPE svg PUBLIC "-//W3C//DTD SVG 1.1//EN" "http://www.w3.org/Graphics/SVG/1.1/DTD/svg11.dtd">
<svg version="1.1" id="Layer_1" xmlns="http://www.w3.org/2000/svg" xmlns:xlink="http://www.w3.org/1999/xlink" x="0px" y="0px"
	 viewBox="0 0 72.8 72.8" enable-background="new 0 0 72.8 72.8" xml:space="preserve">
<g>
	<polygon fill="#003056" points="20.9,39.4 23.5,39.4 23.5,52.5 26,52.5 26,39.4 28.7,39.4 28.7,37.2 20.9,37.2 	"/>
	<path fill="#003056" d="M36.5,28.6c0.3,0,0.6-0.1,0.8-0.3c0.2-0.2,0.3-0.5,0.3-0.8v-6.8c0-0.3-0.1-0.5-0.3-0.7
		c-0.2-0.2-0.5-0.3-0.8-0.3c-0.3,0-0.6,0.1-0.8,0.3c-0.2,0.2-0.3,0.4-0.3,0.7v6.8c0,0.3,0.1,0.6,0.3,0.8
		C35.9,28.5,36.1,28.6,36.5,28.6z"/>
	<path fill="#003056" d="M42.1,41.1c-0.3,0-0.7,0.1-1,0.3c-0.3,0.2-0.7,0.4-1,0.8v-4.9h-2.3v15.3h2.3v-0.9c0.3,0.3,0.6,0.6,1,0.8
		c0.3,0.2,0.7,0.2,1.2,0.2c0.7,0,1.2-0.2,1.5-0.6c0.4-0.4,0.5-1,0.5-1.8v-6.3c0-0.9-0.2-1.6-0.6-2.1C43.4,41.3,42.8,41.1,42.1,41.1z
		 M42,49.9c0,0.4-0.1,0.6-0.2,0.8c-0.1,0.2-0.3,0.2-0.6,0.2c-0.2,0-0.4,0-0.5-0.1c-0.2-0.1-0.4-0.2-0.5-0.4v-7
		c0.2-0.2,0.3-0.3,0.5-0.3c0.2-0.1,0.3-0.1,0.5-0.1c0.3,0,0.5,0.1,0.7,0.3c0.2,0.2,0.2,0.5,0.2,0.9V49.9z"/>
	<path fill="#003056" d="M33.8,49.8c-0.2,0.2-0.4,0.4-0.7,0.6c-0.3,0.2-0.5,0.2-0.6,0.2c-0.2,0-0.4-0.1-0.5-0.2
		c-0.1-0.1-0.1-0.3-0.1-0.6v-8.7h-2.3v9.4c0,0.7,0.1,1.2,0.4,1.5c0.3,0.3,0.7,0.5,1.2,0.5c0.4,0,0.9-0.1,1.3-0.4
		c0.5-0.2,0.9-0.6,1.3-1v1.2h2.3V41.2h-2.3V49.8z"/>
	<path fill="#003056" d="M36.4,0C16.3,0,0,16.3,0,36.4c0,20.1,16.3,36.4,36.4,36.4c20.1,0,36.4-16.3,36.4-36.4
		C72.8,16.3,56.5,0,36.4,0z M42.3,18h2.5v9.5c0,0.3,0.1,0.5,0.2,0.6c0.1,0.1,0.3,0.2,0.5,0.2c0.2,0,0.4-0.1,0.7-0.3
		c0.3-0.2,0.6-0.4,0.8-0.7V18h2.5v12.4H47V29c-0.5,0.5-0.9,0.9-1.5,1.2c-0.5,0.3-1,0.4-1.5,0.4c-0.6,0-1-0.2-1.3-0.6
		c-0.3-0.4-0.4-0.9-0.4-1.7V18z M32.8,20.8c0-1,0.3-1.7,1-2.3c0.7-0.6,1.6-0.9,2.8-0.9c1,0,1.9,0.3,2.6,0.9c0.7,0.6,1,1.4,1,2.3v6.4
		c0,1.1-0.3,1.9-1,2.5c-0.7,0.6-1.6,0.9-2.7,0.9c-1.1,0-2-0.3-2.7-0.9c-0.7-0.6-1-1.5-1-2.5V20.8z M25.9,13.5l1.9,6.7h0.2l1.8-6.7
		h2.9l-3.3,9.9v7h-2.9v-6.7L23,13.5H25.9z M59.2,49.1c0,4.5-3.7,8.2-8.2,8.2H22.7c-4.5,0-8.2-3.7-8.2-8.2v-6.6
		c0-4.5,3.7-8.2,8.2-8.2H51c4.5,0,8.2,3.7,8.2,8.2V49.1z"/>
	<path fill="#003056" d="M48.9,41c-1,0-1.8,0.3-2.5,0.9c-0.6,0.6-1,1.4-1,2.4v5.1c0,1.1,0.3,1.9,0.9,2.6c0.6,0.6,1.4,0.9,2.4,0.9
		c1.1,0,2-0.3,2.5-0.9c0.6-0.6,0.8-1.5,0.8-2.6v-0.6h-2.3v0.5c0,0.7-0.1,1.1-0.2,1.3c-0.1,0.2-0.4,0.3-0.8,0.3
		c-0.4,0-0.6-0.1-0.8-0.3c-0.1-0.2-0.2-0.6-0.2-1.2v-2.1h4.3v-2.9c0-1.1-0.3-1.9-0.8-2.5C50.7,41.2,50,41,48.9,41z M49.8,45.4h-2
		v-1.1c0-0.5,0.1-0.8,0.2-1c0.2-0.2,0.4-0.3,0.8-0.3c0.3,0,0.6,0.1,0.8,0.3c0.2,0.2,0.2,0.5,0.2,1V45.4z"/>
</g>
</svg>
