<?xml version="1.0" encoding="utf-8"?>
<!-- Generator: Adobe Illustrator 17.1.0, SVG Export Plug-In . SVG Version: 6.00 Build 0)  -->
<!DOCTYPE svg PUBLIC "-//W3C//DTD SVG 1.1//EN" "http://www.w3.org/Graphics/SVG/1.1/DTD/svg11.dtd">
<svg version="1.1" id="Layer_1" xmlns="http://www.w3.org/2000/svg" xmlns:xlink="http://www.w3.org/1999/xlink" x="0px" y="0px"
	 viewBox="10.2 55.7 596.3 31.4" enable-background="new 10.2 55.7 596.3 31.4" xml:space="preserve">
<g>
	<g>
		<g>
			<path fill="#676767" d="M12.9,76.5c0,1.7-0.1,3.6,1,5c1,1.3,2.9,2.1,4.5,2.1c1.6,0,3.4-0.8,4.4-2c1.2-1.5,1.1-3.4,1.1-5.2V63.1
				h2.5v14.1c0,2.5-0.2,4.4-2,6.3c-1.6,1.7-3.8,2.6-6,2.6c-2.1,0-4.3-0.8-5.8-2.4c-2-1.9-2.2-3.9-2.2-6.5v-14h2.5v13.3H12.9z"/>
			<path fill="#676767" d="M31,62.2l17.6,18.4V63.2h2.5v23.5L33.5,68.3v17.4H31C31,85.7,31,62.2,31,62.2z"/>
			<path fill="#676767" d="M58.4,85.6h-2.5V63.2h2.5V85.6z"/>
			<path fill="#676767" d="M69.9,80.3l6.4-17.1H79L69.9,87l-9.1-23.9h2.7L69.9,80.3z"/>
			<path fill="#676767" d="M81.4,63.2h11.6v2.4H84v6.7h8.8v2.4H84v8.8h9.2v2.4H81.4V63.2z"/>
			<path fill="#676767" d="M99.9,85.6h-2.5V63.2h3.2c4.3,0,8.2,1.1,8.2,6.2c0,3.5-2.1,5.9-5.6,6.2l7.2,10.1h-3l-6.8-9.9h-0.7
				L99.9,85.6L99.9,85.6z M99.9,73.5h0.8c2.8,0,5.7-0.6,5.7-4c0-3.7-2.7-4-5.7-4h-0.8V73.5z"/>
			<path fill="#676767" d="M123.8,67.6c-0.9-1.6-2-2.5-3.9-2.5c-2,0-3.7,1.5-3.7,3.5c0,1.9,2,2.8,3.5,3.5l1.5,0.7
				c2.9,1.2,5.4,2.7,5.4,6.3c0,3.9-3.1,6.9-7.1,6.9c-3.6,0-6.3-2.4-7.1-5.8l2.5-0.7c0.3,2.4,2.1,4.1,4.5,4.1s4.6-1.9,4.6-4.4
				c0-2.6-2-3.5-4.1-4.5l-1.3-0.6c-2.6-1.2-4.9-2.6-4.9-5.7c0-3.5,2.9-5.7,6.3-5.7c2.5,0,4.6,1.2,5.8,3.5L123.8,67.6z"/>
			<path fill="#676767" d="M132.8,85.6h-2.5V63.2h2.5V85.6z"/>
			<path fill="#676767" d="M137.3,63.2h4.3c3.4,0,6.2,0.4,8.7,2.7c2.6,2.2,3.7,5.3,3.7,8.5s-1.2,6.2-3.7,8.4
				c-2.7,2.4-5.4,2.8-8.8,2.8h-4.1V63.2z M141.7,83.3c2.7,0,5-0.3,7.1-2.4c1.9-1.7,2.8-4,2.8-6.6s-1-5-2.9-6.7
				c-2-1.8-4.4-2.1-6.9-2.1h-1.8v17.8H141.7z"/>
			<path fill="#676767" d="M161,79.2l-2.7,6.4h-2.7L166,62.1l10.1,23.5h-2.8l-2.7-6.4H161z M165.8,67.9l-3.8,9h7.6L165.8,67.9z"/>
			<path fill="#676767" d="M178.4,63.2h4.3c3.4,0,6.2,0.4,8.7,2.7c2.6,2.2,3.7,5.3,3.7,8.5s-1.2,6.2-3.7,8.4
				c-2.7,2.4-5.4,2.8-8.8,2.8h-4.1L178.4,63.2L178.4,63.2z M182.8,83.3c2.7,0,5-0.3,7.1-2.4c1.9-1.7,2.8-4,2.8-6.6s-1-5-2.9-6.7
				c-2-1.8-4.4-2.1-6.9-2.1H181v17.8H182.8z"/>
			<path fill="#676767" d="M211.2,79.2l-2.7,6.4h-2.7l10.4-23.5l10.1,23.5h-2.8l-2.7-6.4H211.2z M216.1,67.9l-3.8,9h7.6L216.1,67.9z
				"/>
			<path fill="#676767" d="M231.1,76.5c0,1.7-0.1,3.6,1,5c1,1.3,2.9,2.1,4.5,2.1c1.6,0,3.4-0.8,4.4-2c1.2-1.5,1.1-3.4,1.1-5.2V63.1
				h2.5v14.1c0,2.5-0.2,4.4-2,6.3c-1.6,1.7-3.8,2.6-6,2.6c-2.1,0-4.3-0.8-5.8-2.4c-2-1.9-2.2-3.9-2.2-6.5v-14h2.5v13.3H231.1z"/>
			<path fill="#676767" d="M255,85.6h-2.5V65.4h-5.4v-2.4h13.4v2.4h-5.5v20.2H255z"/>
			<path fill="#676767" d="M285.4,74.4c0,6.5-5.3,11.6-11.8,11.6c-6.4,0-11.8-5.2-11.8-11.6s5.3-11.6,11.8-11.6S285.4,68,285.4,74.4
				z M264.4,74.4c0,5,4.1,9.3,9.2,9.3c5.2,0,9.2-4.3,9.2-9.3c0-5.2-4-9.3-9.2-9.3C268.5,65.1,264.4,69.2,264.4,74.4z M277.9,56.8
				l-4.6,4.6l-1.5-0.8l3.6-4.9L277.9,56.8z"/>
			<path fill="#676767" d="M289,62.2l17.6,18.4V63.2h2.5v23.5l-17.6-18.4v17.4H289V62.2z"/>
			<path fill="#676767" d="M336,74.4c0,6.5-5.3,11.6-11.8,11.6c-6.4,0-11.8-5.2-11.8-11.6s5.3-11.6,11.8-11.6
				C330.6,62.7,336,68,336,74.4z M315.1,74.4c0,5,4.1,9.3,9.2,9.3c5.2,0,9.2-4.3,9.2-9.3c0-5.2-4-9.3-9.2-9.3
				C319.1,65.1,315.1,69.2,315.1,74.4z"/>
			<path fill="#676767" d="M342.3,61.8l8.2,18.9l8.2-18.9l4.6,23.7h-2.6l-2.9-15.2h-0.1l-7.3,16.1l-7.2-16.1h-0.1l-2.9,15.2h-2.6
				L342.3,61.8z"/>
			<path fill="#676767" d="M369.5,79.2l-2.7,6.4H364l10.4-23.5l10.1,23.5h-2.8l-2.7-6.4H369.5z M374.3,67.9l-3.8,9h7.6L374.3,67.9z"
				/>
			<path fill="#676767" d="M396.2,63.2h4.3c3.4,0,6.2,0.4,8.7,2.7c2.6,2.2,3.7,5.3,3.7,8.5s-1.2,6.2-3.7,8.4
				c-2.7,2.4-5.4,2.8-8.8,2.8h-4.1L396.2,63.2L396.2,63.2z M400.4,83.3c2.7,0,5-0.3,7.1-2.4c1.9-1.7,2.8-4,2.8-6.6s-1-5-2.9-6.7
				c-2-1.8-4.4-2.1-6.9-2.1h-1.8v17.8H400.4z"/>
			<path fill="#676767" d="M416.3,63.2H428v2.4h-9.1v6.7h8.8v2.4h-8.8v8.8h9.2v2.4h-11.6V63.2H416.3z"/>
			<path fill="#676767" d="M458.8,83.8c-1.9,1.5-4.5,2.2-6.7,2.2c-6.4,0-11.8-5.2-11.8-11.6s5.3-11.6,11.8-11.6s11.8,5.3,11.8,11.8
				c0,3.1-1.1,5.7-3.2,8l3.4,3.5h-3.1L458.8,83.8z M458.8,80.7c1.7-1.8,2.5-3.8,2.5-6.3c0-5.2-4-9.3-9.2-9.3s-9.2,4.3-9.2,9.3
				s4.1,9.3,9.2,9.3c1.7,0,3.6-0.7,5-1.7l-5.4-5.5h3.2L458.8,80.7z"/>
			<path fill="#676767" d="M469.6,76.5c0,1.7-0.1,3.6,1,5c1,1.3,2.9,2.1,4.5,2.1s3.4-0.8,4.4-2c1.2-1.5,1.1-3.4,1.1-5.2V63.1h2.5
				v14.1c0,2.5-0.2,4.4-2,6.3c-1.6,1.7-3.8,2.6-6,2.6c-2.1,0-4.3-0.8-5.8-2.4c-2-1.9-2.2-3.9-2.2-6.5v-14h2.5v13.3H469.6z"/>
			<path fill="#676767" d="M487.6,63.2h11.6v2.4H490v6.7h8.8v2.4H490v8.8h9.2v2.4h-11.6V63.2z"/>
			<path fill="#676767" d="M506,85.6h-2.5V63.2h3.2c4.3,0,8.2,1.1,8.2,6.2c0,3.5-2.1,5.9-5.6,6.2l7.2,10.1h-3l-6.8-9.9H506L506,85.6
				L506,85.6z M506,73.5h0.8c2.8,0,5.7-0.6,5.7-4c0-3.7-2.7-4-5.7-4H506V73.5z"/>
			<path fill="#676767" d="M519.7,63.2h11.6v2.4h-9.2v6.7h8.8v2.4h-8.8v8.8h9.2v2.4h-11.6V63.2z M529.6,56.8l-4.6,4.6l-1.5-0.8
				l3.6-4.9L529.6,56.8z"/>
			<path fill="#676767" d="M541.5,85.6h-2.5V65.4h-5.4v-2.4h13.4v2.4h-5.5v20.2H541.5z"/>
			<path fill="#676767" d="M550.6,79.2l-2.7,6.4h-2.7l10.4-23.5l10.1,23.5h-2.8l-2.7-6.4H550.6z M555.4,67.9l-3.8,9h7.6L555.4,67.9z
				"/>
			<path fill="#676767" d="M570.6,85.6h-2.5V63.2h3.2c4.3,0,8.2,1.1,8.2,6.2c0,3.5-2.1,5.9-5.6,6.2l7.2,10.1H578l-6.8-9.9h-0.7v9.9
				H570.6z M570.6,73.5h0.8c2.8,0,5.7-0.6,5.7-4c0-3.7-2.7-4-5.7-4h-0.8V73.5z"/>
			<path fill="#676767" d="M606.5,74.4c0,6.5-5.3,11.6-11.8,11.6c-6.4,0-11.8-5.2-11.8-11.6s5.3-11.6,11.8-11.6S606.5,68,606.5,74.4
				z M585.6,74.4c0,5,4.1,9.3,9.2,9.3c5.2,0,9.2-4.3,9.2-9.3c0-5.2-4-9.3-9.2-9.3C589.7,65.1,585.6,69.2,585.6,74.4z"/>
		</g>
	</g>
</g>
</svg>
