<?xml version="1.0" encoding="utf-8"?>
<!-- Generator: Adobe Illustrator 17.1.0, SVG Export Plug-In . SVG Version: 6.00 Build 0)  -->
<!DOCTYPE svg PUBLIC "-//W3C//DTD SVG 1.1//EN" "http://www.w3.org/Graphics/SVG/1.1/DTD/svg11.dtd">
<svg version="1.1" id="Layer_1" xmlns="http://www.w3.org/2000/svg" xmlns:xlink="http://www.w3.org/1999/xlink" x="0px" y="0px"
	 viewBox="0 0 792 612" enable-background="new 0 0 792 612" xml:space="preserve">
<path fill="#212558" d="M173,434.1c-22.2,0-41.2-8-56.4-23.7C102.9,396.1,96,377.9,96,356.2V226.4h40.6v121.7
	c0,15.2,2.4,26.3,7.1,33c6.9,9.5,16.5,14.1,29.3,14.1c12.9,0,22.5-4.6,29.5-14.2c4.6-6.4,7-17.4,7-32.9V226.4h40.6v129.8
	c0,21.7-6.9,40-20.6,54.2C214.3,426.1,195.3,434.1,173,434.1"/>
<path fill="#212558" d="M696.8,291.9c0-38.9-13.9-72.3-41.8-100.1c-27.8-27.8-61.1-41.7-99.9-41.7c-39.3,0-73,13.8-101,41.3
	C426,219,412,252,412,290.3c0,43.7,15.4,79,46.2,105.9c21.8,19,45.9,30.5,72.1,34.7l-0.2,0.1l123.5,31.7l-27.9-48.8
	c10.3-6,19.9-13.4,29-22.2C682.8,364.3,696.8,331.1,696.8,291.9 M612,350.3c-15.8,15.9-35.3,23.9-58.3,23.9
	c-21.2,0-40-7.8-56.2-23.5c-16.3-15.6-24.5-35.6-24.5-59.8c0-23.1,7.9-42.5,23.6-58.3c15.7-15.9,35-23.9,57.9-23.9
	c22.9,0,42.2,8,57.7,23.9c15.6,15.8,23.5,35.4,23.5,58.8C635.7,314.6,627.8,334.2,612,350.3"/>
<path fill="#212558" d="M350,222.1c-1.4-2.6-4.1-4.3-7.2-4.3c-3.7,0-6.7,2.4-7.9,5.6h-0.1l-96.5,207.2h44.1l21.5-46.8h75l20.2,46.8
	h44.5L350,222.1z M321.3,344.9l20.8-45.6l19.9,45.6H321.3z"/>
</svg>
